<?xml version="1.0" encoding="UTF-8" standalone="no"?>
<!-- Generator: Adobe Illustrator 24.0.1, SVG Export Plug-In . SVG Version: 6.00 Build 0)  -->

<svg
   xmlns:dc="http://purl.org/dc/elements/1.1/"
   xmlns:cc="http://creativecommons.org/ns#"
   xmlns:rdf="http://www.w3.org/1999/02/22-rdf-syntax-ns#"
   xmlns:svg="http://www.w3.org/2000/svg"
   xmlns="http://www.w3.org/2000/svg"
   xmlns:sodipodi="http://sodipodi.sourceforge.net/DTD/sodipodi-0.dtd"
   xmlns:inkscape="http://www.inkscape.org/namespaces/inkscape"
   version="1.1"
   id="Layer_1"
   x="0px"
   y="0px"
   viewBox="0 0 1224 792"
   style="enable-background:new 0 0 1224 792;"
   xml:space="preserve"
   sodipodi:docname="alquerque.svg"
   inkscape:version="0.92.3 (2405546, 2018-03-11)"><metadata
   id="metadata806"><rdf:RDF><cc:Work
       rdf:about=""><dc:format>image/svg+xml</dc:format><dc:type
         rdf:resource="http://purl.org/dc/dcmitype/StillImage" /></cc:Work></rdf:RDF></metadata><defs
   id="defs804" /><sodipodi:namedview
   pagecolor="#ffffff"
   bordercolor="#666666"
   borderopacity="1"
   objecttolerance="10"
   gridtolerance="10"
   guidetolerance="10"
   inkscape:pageopacity="0"
   inkscape:pageshadow="2"
   inkscape:window-width="1920"
   inkscape:window-height="1052"
   id="namedview802"
   showgrid="false"
   inkscape:zoom="1.0130719"
   inkscape:cx="451.96448"
   inkscape:cy="394.37973"
   inkscape:window-x="0"
   inkscape:window-y="0"
   inkscape:window-maximized="1"
   inkscape:current-layer="Layer_1" />
<style
   type="text/css"
   id="style460">
	.Arched_x0020_Green{fill:url(#SVGID_1_);stroke:#FFFFFF;stroke-width:0.25;stroke-miterlimit:1;}
	.st0{fill:#007C91;}
	.st1{fill:none;}
	.st2{fill:#231F20;}
	.st3{font-family:'LHFCosmicCursiveII';}
	.st4{font-size:33px;}
	.st5{font-family:'LHFEgyptian';}
	.st6{font-size:18px;}
	.st7{font-size:14px;}
	.st8{fill:none;stroke:#000000;}
	.st9{font-family:'MyriadPro-Regular';}
	.st10{font-size:12px;}
	.st11{fill:none;stroke:#231F20;stroke-width:2;}
	.st12{stroke:#231F20;stroke-width:2;}
	.st13{fill:#FFFFFF;stroke:#231F20;stroke-width:2;}
	.st14{fill:#808080;stroke:#000000;stroke-width:2;}
</style>
<linearGradient
   id="SVGID_1_"
   gradientUnits="userSpaceOnUse"
   x1="0"
   y1="792"
   x2="0.7071"
   y2="791.2929">
	<stop
   offset="0"
   style="stop-color:#1EAB4B"
   id="stop462" />
	<stop
   offset="0.9831"
   style="stop-color:#19361A"
   id="stop464" />
</linearGradient>
<g
   id="g629">
	<g
   id="g627">
		<g
   id="g469">
			<rect
   x="59.19"
   y="600.32"
   class="st0"
   width="16.91"
   height="81.65"
   id="rect467" />
		</g>
		<g
   id="g473">
			<rect
   x="59.19"
   y="518.67"
   class="st0"
   width="16.91"
   height="81.65"
   id="rect471" />
		</g>
		<g
   id="g477">
			<rect
   x="59.19"
   y="437.03"
   class="st0"
   width="16.91"
   height="81.65"
   id="rect475" />
		</g>
		<g
   id="g481">
			<rect
   x="59.19"
   y="355.38"
   class="st0"
   width="16.91"
   height="81.65"
   id="rect479" />
		</g>
		<g
   id="g485">
			<rect
   x="59.19"
   y="273.73"
   class="st0"
   width="16.91"
   height="81.65"
   id="rect483" />
		</g>
		<g
   id="g489">
			<rect
   x="59.19"
   y="192.08"
   class="st0"
   width="16.91"
   height="81.65"
   id="rect487" />
		</g>
		<g
   id="g493">
			<rect
   x="59.19"
   y="110.43"
   class="st0"
   width="16.91"
   height="81.65"
   id="rect491" />
		</g>
		<g
   id="g497">
			<rect
   x="110.43"
   y="59.19"
   class="st0"
   width="78.1"
   height="16.91"
   id="rect495" />
		</g>
		<g
   id="g501">
			<rect
   x="188.54"
   y="59.19"
   class="st0"
   width="78.1"
   height="16.91"
   id="rect499" />
		</g>
		<g
   id="g505">
			<rect
   x="266.64"
   y="59.19"
   class="st0"
   width="78.1"
   height="16.91"
   id="rect503" />
		</g>
		<g
   id="g509">
			<rect
   x="344.74"
   y="59.19"
   class="st0"
   width="78.1"
   height="16.91"
   id="rect507" />
		</g>
		<g
   id="g513">
			<rect
   x="422.85"
   y="59.19"
   class="st0"
   width="78.1"
   height="16.91"
   id="rect511" />
		</g>
		<g
   id="g517">
			<rect
   x="500.95"
   y="59.19"
   class="st0"
   width="78.1"
   height="16.91"
   id="rect515" />
		</g>
		<g
   id="g521">
			<rect
   x="579.05"
   y="59.19"
   class="st0"
   width="78.1"
   height="16.91"
   id="rect519" />
		</g>
		<g
   id="g525">
			<rect
   x="657.15"
   y="59.19"
   class="st0"
   width="78.1"
   height="16.91"
   id="rect523" />
		</g>
		<g
   id="g529">
			<rect
   x="735.26"
   y="59.19"
   class="st0"
   width="78.1"
   height="16.91"
   id="rect527" />
		</g>
		<g
   id="g533">
			<rect
   x="813.36"
   y="59.19"
   class="st0"
   width="78.1"
   height="16.91"
   id="rect531" />
		</g>
		<g
   id="g537">
			<rect
   x="891.46"
   y="59.19"
   class="st0"
   width="78.1"
   height="16.91"
   id="rect535" />
		</g>
		<g
   id="g541">
			<rect
   x="1003.9"
   y="110.43"
   class="st0"
   width="16.91"
   height="81.65"
   id="rect539" />
		</g>
		<g
   id="g545">
			<rect
   x="1003.9"
   y="192.08"
   class="st0"
   width="16.91"
   height="81.65"
   id="rect543" />
		</g>
		<g
   id="g549">
			<rect
   x="1003.9"
   y="273.73"
   class="st0"
   width="16.91"
   height="81.65"
   id="rect547" />
		</g>
		<g
   id="g553">
			<rect
   x="1003.9"
   y="355.38"
   class="st0"
   width="16.91"
   height="81.65"
   id="rect551" />
		</g>
		<g
   id="g557">
			<rect
   x="1003.9"
   y="437.03"
   class="st0"
   width="16.91"
   height="81.65"
   id="rect555" />
		</g>
		<g
   id="g561">
			<rect
   x="1003.9"
   y="518.67"
   class="st0"
   width="16.91"
   height="81.65"
   id="rect559" />
		</g>
		<g
   id="g565">
			<rect
   x="1003.9"
   y="600.32"
   class="st0"
   width="16.91"
   height="81.65"
   id="rect563" />
		</g>
		<g
   id="g569">
			<rect
   x="891.46"
   y="716.31"
   class="st0"
   width="78.1"
   height="16.91"
   id="rect567" />
		</g>
		<g
   id="g573">
			<rect
   x="813.36"
   y="716.31"
   class="st0"
   width="78.1"
   height="16.91"
   id="rect571" />
		</g>
		<g
   id="g577">
			<rect
   x="735.26"
   y="716.31"
   class="st0"
   width="78.1"
   height="16.91"
   id="rect575" />
		</g>
		<g
   id="g581">
			<rect
   x="657.15"
   y="716.31"
   class="st0"
   width="78.1"
   height="16.91"
   id="rect579" />
		</g>
		<g
   id="g585">
			<rect
   x="579.05"
   y="716.31"
   class="st0"
   width="78.1"
   height="16.91"
   id="rect583" />
		</g>
		<g
   id="g589">
			<rect
   x="500.95"
   y="716.31"
   class="st0"
   width="78.1"
   height="16.91"
   id="rect587" />
		</g>
		<g
   id="g593">
			<rect
   x="422.85"
   y="716.31"
   class="st0"
   width="78.1"
   height="16.91"
   id="rect591" />
		</g>
		<g
   id="g597">
			<rect
   x="344.74"
   y="716.31"
   class="st0"
   width="78.1"
   height="16.91"
   id="rect595" />
		</g>
		<g
   id="g601">
			<rect
   x="266.64"
   y="716.31"
   class="st0"
   width="78.1"
   height="16.91"
   id="rect599" />
		</g>
		<g
   id="g605">
			<rect
   x="188.54"
   y="716.31"
   class="st0"
   width="78.1"
   height="16.91"
   id="rect603" />
		</g>
		<g
   id="g609">
			<rect
   x="110.43"
   y="716.31"
   class="st0"
   width="78.1"
   height="16.91"
   id="rect607" />
		</g>
		<g
   id="g613">
			<path
   class="st0"
   d="M110.47,59.17H84.95c0.67,1.97,1.04,4.14,1.04,6.39c0,11.27-9.14,20.4-20.4,20.4c-2.24,0-4.4-0.36-6.41-1.03     v25.54H76.1V98.96c13.63-2.6,20.27-9.23,22.88-22.86h11.49V59.17z"
   id="path611" />
		</g>
		<g
   id="g617">
			<path
   class="st0"
   d="M1020.83,110.47V84.95c-1.97,0.67-4.14,1.04-6.39,1.04c-11.27,0-20.4-9.14-20.4-20.4     c0-2.24,0.36-4.4,1.03-6.41h-25.54V76.1h11.52c2.6,13.63,9.23,20.27,22.86,22.88v11.49H1020.83z"
   id="path615" />
		</g>
		<g
   id="g621">
			<path
   class="st0"
   d="M969.53,733.24h25.52c-0.67-1.97-1.04-4.14-1.04-6.39c0-11.27,9.14-20.4,20.4-20.4     c2.24,0,4.4,0.36,6.41,1.03v-25.54h-16.93v11.52c-13.63,2.6-20.27,9.23-22.88,22.86h-11.49V733.24z"
   id="path619" />
		</g>
		<g
   id="g625">
			<path
   class="st0"
   d="M59.17,681.93v25.52c1.97-0.67,4.14-1.04,6.39-1.04c11.27,0,20.4,9.14,20.4,20.4c0,2.24-0.36,4.4-1.03,6.41     h25.54V716.3H98.96c-2.6-13.63-9.23-20.27-22.86-22.88v-11.49H59.17z"
   id="path623" />
		</g>
	</g>
</g>
<rect
   x="109.33"
   y="109.4"
   class="st1"
   width="250.33"
   height="574.67"
   id="rect631" />
<text
   transform="scale(0.95979164,1.0418928)"
   id="text683"
   x="112.91222"
   y="147.95309"
   style="font-style:normal;font-variant:normal;font-weight:normal;font-stretch:normal;font-size:11.51746655px;font-family:sans-serif;-inkscape-font-specification:'sans-serif, Normal';font-variant-ligatures:normal;font-variant-caps:normal;font-variant-numeric:normal;font-feature-settings:normal;text-align:start;writing-mode:lr-tb;text-anchor:start;stroke-width:0.95979166"><tspan
     sodipodi:role="line"
     id="tspan1356"
     x="112.91222"
     y="147.95309">A 20-minute game for two players.</tspan><tspan
     sodipodi:role="line"
     id="tspan1358"
     x="112.91222"
     y="162.34993"></tspan><tspan
     sodipodi:role="line"
     id="tspan1360"
     x="112.91222"
     y="176.74677">EQUIPMENT: </tspan><tspan
     sodipodi:role="line"
     id="tspan1362"
     x="112.91222"
     y="191.1436">This game is played on 7x7 board (shown </tspan><tspan
     sodipodi:role="line"
     id="tspan1364"
     x="112.91222"
     y="205.54042">at right). You’ll need 2 sets of 12 markers. </tspan><tspan
     sodipodi:role="line"
     id="tspan1366"
     x="112.91222"
     y="219.93726"></tspan><tspan
     sodipodi:role="line"
     id="tspan1368"
     x="112.91222"
     y="234.33409">SETUP: </tspan><tspan
     sodipodi:role="line"
     id="tspan1370"
     x="112.91222"
     y="248.73093">One player starts with his markers on the white</tspan><tspan
     sodipodi:role="line"
     id="tspan1372"
     x="112.91222"
     y="263.12775">spots, the other starts with her markers on the</tspan><tspan
     sodipodi:role="line"
     id="tspan1374"
     x="112.91222"
     y="277.5246">black spots. After setup, all spots should be</tspan><tspan
     sodipodi:role="line"
     id="tspan1376"
     x="112.91222"
     y="291.92142">treated the same way.</tspan><tspan
     sodipodi:role="line"
     id="tspan1378"
     x="112.91222"
     y="306.31827"></tspan><tspan
     sodipodi:role="line"
     id="tspan1380"
     x="112.91222"
     y="320.71509">HOW TO PLAY:</tspan><tspan
     sodipodi:role="line"
     id="tspan1382"
     x="112.91222"
     y="335.11194">Players take turns moving one marker along a</tspan><tspan
     sodipodi:role="line"
     id="tspan1384"
     x="112.91222"
     y="349.50876">line from one spot to another. Players</tspan><tspan
     sodipodi:role="line"
     id="tspan1386"
     x="112.91222"
     y="363.90558">capture markers by jumping over them, as in</tspan><tspan
     sodipodi:role="line"
     id="tspan1388"
     x="112.91222"
     y="378.30243">Checkers. Also like Checkers: a player may</tspan><tspan
     sodipodi:role="line"
     id="tspan1390"
     x="112.91222"
     y="392.69925">capture many markers in one turn, and the</tspan><tspan
     sodipodi:role="line"
     id="tspan1392"
     x="112.91222"
     y="407.0961">game ends when one player has no more markers.</tspan><tspan
     sodipodi:role="line"
     id="tspan1394"
     x="112.91222"
     y="421.49292"></tspan><tspan
     sodipodi:role="line"
     id="tspan1396"
     x="112.91222"
     y="435.88977"></tspan><tspan
     sodipodi:role="line"
     id="tspan1398"
     x="112.91222"
     y="450.28659"></tspan><tspan
     sodipodi:role="line"
     id="tspan1400"
     x="112.91222"
     y="464.68341"></tspan><tspan
     sodipodi:role="line"
     id="tspan1402"
     x="112.91222"
     y="479.08026"></tspan><tspan
     sodipodi:role="line"
     id="tspan1404"
     x="112.91222"
     y="493.47708"></tspan><tspan
     sodipodi:role="line"
     id="tspan1406"
     x="112.91222"
     y="507.87393"></tspan><tspan
     sodipodi:role="line"
     id="tspan1408"
     x="112.91222"
     y="522.27081"></tspan><tspan
     sodipodi:role="line"
     id="tspan1410"
     x="112.91222"
     y="536.6676"></tspan><tspan
     sodipodi:role="line"
     id="tspan1412"
     x="112.91222"
     y="551.06445"></tspan><tspan
     sodipodi:role="line"
     id="tspan1414"
     x="112.91222"
     y="565.4613"></tspan><tspan
     sodipodi:role="line"
     id="tspan1416"
     x="112.91222"
     y="579.85809">HISTORY:  This version of this game was played by</tspan><tspan
     sodipodi:role="line"
     id="tspan1418"
     x="112.91222"
     y="594.25494">the Moors. The board’s pattern is cut onto the</tspan><tspan
     sodipodi:role="line"
     id="tspan1420"
     x="112.91222"
     y="608.65179">roofing slabs of the Egyptian temple at Kurna,</tspan><tspan
     sodipodi:role="line"
     id="tspan1422"
     x="112.91222"
     y="623.04865">which was begun by Rameses I (ca. 1600 B.C.E.).</tspan><tspan
     sodipodi:role="line"
     id="tspan1424"
     x="112.91222"
     y="637.44543">The pattern is partially cut away.</tspan></text>

<line
   class="st1"
   x1="0"
   y1="755.6"
   x2="35.71"
   y2="755.6"
   id="line685" />
<line
   class="st8"
   x1="35.71"
   y1="755.6"
   x2="35.71"
   y2="792"
   id="line687" />
<line
   class="st8"
   x1="0"
   y1="35.67"
   x2="35.71"
   y2="35.67"
   id="line689" />
<line
   class="st8"
   x1="35.71"
   y1="35.67"
   x2="35.71"
   y2="0"
   id="line691" />
<line
   class="st8"
   x1="1043.67"
   y1="0"
   x2="1043.67"
   y2="35.67"
   id="line693" />
<line
   class="st8"
   x1="1043.67"
   y1="35.67"
   x2="1084.33"
   y2="35.67"
   id="line695" />
<text
   transform="matrix(1 0 0 1 1060.333 53.667)"
   id="text701"><tspan
     x="0"
     y="0"
     class="st9 st10"
     id="tspan697">Corners indicate 10”x14”</tspan><tspan
     x="0"
     y="14.4"
     class="st9 st10"
     id="tspan699">standard placemat size</tspan></text>

<line
   class="st1"
   x1="0"
   y1="755.6"
   x2="35.71"
   y2="755.6"
   id="line703" />
<line
   class="st8"
   x1="35.71"
   y1="755.6"
   x2="35.71"
   y2="792"
   id="line705" />
<line
   class="st8"
   x1="1043"
   y1="756"
   x2="1043"
   y2="788.4"
   id="line707" />
<line
   class="st8"
   x1="1044"
   y1="756"
   x2="1132.03"
   y2="756"
   id="line709" />
<line
   class="st8"
   x1="35.71"
   y1="755.6"
   x2="0"
   y2="755.6"
   id="line711" />
<path
   class="st11"
   d="M775.52,488.12"
   id="path713" />
<path
   class="st11"
   d="M776.12,227.17"
   id="path715" />
<line
   class="st11"
   x1="939.55"
   y1="129.65"
   x2="938.35"
   y2="651.55"
   id="line717" />
<line
   class="st11"
   x1="809.53"
   y1="129.65"
   x2="808.32"
   y2="651.55"
   id="line719" />
<line
   class="st11"
   x1="679.5"
   y1="129.65"
   x2="678.3"
   y2="651.55"
   id="line721" />
<line
   class="st11"
   x1="549.48"
   y1="129.65"
   x2="548.28"
   y2="651.55"
   id="line723" />
<line
   class="st11"
   x1="419.46"
   y1="129.65"
   x2="418.25"
   y2="651.55"
   id="line725" />
<line
   class="st11"
   x1="941.36"
   y1="131.46"
   x2="417.65"
   y2="129.65"
   id="line727" />
<line
   class="st11"
   x1="941.36"
   y1="261.48"
   x2="417.65"
   y2="259.68"
   id="line729" />
<line
   class="st11"
   x1="941.36"
   y1="391.51"
   x2="417.65"
   y2="389.7"
   id="line731" />
<line
   class="st11"
   x1="941.36"
   y1="521.53"
   x2="417.65"
   y2="519.72"
   id="line733" />
<line
   class="st11"
   x1="941.36"
   y1="651.55"
   x2="417.65"
   y2="649.75"
   id="line735" />
<line
   class="st11"
   x1="417.65"
   y1="389.7"
   x2="677.7"
   y2="129.65"
   id="line737" />
<line
   class="st11"
   x1="677.7"
   y1="129.65"
   x2="937.75"
   y2="389.7"
   id="line739" />
<line
   class="st11"
   x1="937.75"
   y1="389.7"
   x2="677.7"
   y2="649.75"
   id="line741" />
<line
   class="st11"
   x1="677.7"
   y1="649.75"
   x2="417.65"
   y2="389.7"
   id="line743" />
<line
   class="st11"
   x1="417.65"
   y1="129.65"
   x2="937.75"
   y2="649.75"
   id="line745" />
<line
   class="st11"
   x1="937.75"
   y1="129.65"
   x2="417.65"
   y2="649.75"
   id="line747" />
<path
   class="st12"
   d="M433.91,129.65c0,8.98-7.28,16.25-16.25,16.25c-8.98,0-16.25-7.28-16.25-16.25c0-8.98,7.28-16.25,16.25-16.25  C426.63,113.4,433.91,120.68,433.91,129.65z"
   id="path749" />
<path
   class="st12"
   d="M563.93,129.65c0,8.98-7.28,16.25-16.25,16.25c-8.98,0-16.25-7.28-16.25-16.25c0-8.98,7.28-16.25,16.25-16.25  C556.65,113.4,563.93,120.68,563.93,129.65z"
   id="path751" />
<path
   class="st12"
   d="M693.95,129.65c0,8.98-7.28,16.25-16.25,16.25c-8.98,0-16.25-7.28-16.25-16.25c0-8.98,7.28-16.25,16.25-16.25  C686.68,113.4,693.95,120.68,693.95,129.65z"
   id="path753" />
<path
   class="st12"
   d="M823.97,129.65c0,8.98-7.28,16.25-16.25,16.25c-8.98,0-16.25-7.28-16.25-16.25c0-8.98,7.28-16.25,16.25-16.25  C816.7,113.4,823.97,120.68,823.97,129.65z"
   id="path755" />
<path
   class="st12"
   d="M954,129.65c0,8.98-7.28,16.25-16.25,16.25c-8.98,0-16.25-7.28-16.25-16.25c0-8.98,7.28-16.25,16.25-16.25  C946.72,113.4,954,120.68,954,129.65z"
   id="path757" />
<path
   class="st12"
   d="M954,259.68c0,8.98-7.28,16.25-16.25,16.25c-8.98,0-16.25-7.28-16.25-16.25c0-8.98,7.28-16.25,16.25-16.25  C946.72,243.42,954,250.7,954,259.68z"
   id="path759" />
<path
   class="st12"
   d="M823.97,259.68c0,8.98-7.28,16.25-16.25,16.25c-8.98,0-16.25-7.28-16.25-16.25c0-8.98,7.28-16.25,16.25-16.25  C816.7,243.42,823.97,250.7,823.97,259.68z"
   id="path761" />
<path
   class="st12"
   d="M693.95,259.68c0,8.98-7.28,16.25-16.25,16.25c-8.98,0-16.25-7.28-16.25-16.25c0-8.98,7.28-16.25,16.25-16.25  C686.68,243.42,693.95,250.7,693.95,259.68z"
   id="path763" />
<path
   class="st12"
   d="M563.93,259.68c0,8.98-7.28,16.25-16.25,16.25c-8.98,0-16.25-7.28-16.25-16.25c0-8.98,7.28-16.25,16.25-16.25  C556.65,243.42,563.93,250.7,563.93,259.68z"
   id="path765" />
<path
   class="st12"
   d="M433.91,259.68c0,8.98-7.28,16.25-16.25,16.25c-8.98,0-16.25-7.28-16.25-16.25c0-8.98,7.28-16.25,16.25-16.25  C426.63,243.42,433.91,250.7,433.91,259.68z"
   id="path767" />
<circle
   class="st12"
   cx="417.65"
   cy="389.7"
   r="16.25"
   id="circle769" />
<path
   class="st12"
   d="M563.93,389.7c0,8.98-7.28,16.25-16.25,16.25c-8.98,0-16.25-7.28-16.25-16.25c0-8.98,7.28-16.25,16.25-16.25  C556.65,373.45,563.93,380.72,563.93,389.7z"
   id="path771" />
<path
   class="st13"
   d="M823.97,389.7c0,8.98-7.28,16.25-16.25,16.25c-8.98,0-16.25-7.28-16.25-16.25c0-8.98,7.28-16.25,16.25-16.25  C816.7,373.45,823.97,380.72,823.97,389.7z"
   id="path773" />
<path
   class="st13"
   d="M954,389.7c0,8.98-7.28,16.25-16.25,16.25c-8.98,0-16.25-7.28-16.25-16.25c0-8.98,7.28-16.25,16.25-16.25  C946.72,373.45,954,380.72,954,389.7z"
   id="path775" />
<path
   class="st13"
   d="M954,519.72c0,8.98-7.28,16.25-16.25,16.25c-8.98,0-16.25-7.28-16.25-16.25c0-8.98,7.28-16.25,16.25-16.25  C946.72,503.47,954,510.75,954,519.72z"
   id="path777" />
<path
   class="st13"
   d="M823.97,519.72c0,8.98-7.28,16.25-16.25,16.25c-8.98,0-16.25-7.28-16.25-16.25c0-8.98,7.28-16.25,16.25-16.25  C816.7,503.47,823.97,510.75,823.97,519.72z"
   id="path779" />
<path
   class="st13"
   d="M693.95,519.72c0,8.98-7.28,16.25-16.25,16.25c-8.98,0-16.25-7.28-16.25-16.25c0-8.98,7.28-16.25,16.25-16.25  C686.68,503.47,693.95,510.75,693.95,519.72z"
   id="path781" />
<path
   class="st13"
   d="M563.93,519.72c0,8.98-7.28,16.25-16.25,16.25c-8.98,0-16.25-7.28-16.25-16.25c0-8.98,7.28-16.25,16.25-16.25  C556.65,503.47,563.93,510.75,563.93,519.72z"
   id="path783" />
<path
   class="st13"
   d="M433.91,519.72c0,8.98-7.28,16.25-16.25,16.25c-8.98,0-16.25-7.28-16.25-16.25c0-8.98,7.28-16.25,16.25-16.25  C426.63,503.47,433.91,510.75,433.91,519.72z"
   id="path785" />
<path
   class="st13"
   d="M433.91,649.75c0,8.98-7.28,16.25-16.25,16.25c-8.98,0-16.25-7.28-16.25-16.25c0-8.98,7.28-16.25,16.25-16.25  C426.63,633.5,433.91,640.77,433.91,649.75z"
   id="path787" />
<path
   class="st13"
   d="M563.93,649.75c0,8.98-7.28,16.25-16.25,16.25c-8.98,0-16.25-7.28-16.25-16.25c0-8.98,7.28-16.25,16.25-16.25  C556.65,633.5,563.93,640.77,563.93,649.75z"
   id="path789" />
<path
   class="st13"
   d="M693.95,649.75c0,8.98-7.28,16.25-16.25,16.25c-8.98,0-16.25-7.28-16.25-16.25c0-8.98,7.28-16.25,16.25-16.25  C686.68,633.5,693.95,640.77,693.95,649.75z"
   id="path791" />
<path
   class="st13"
   d="M823.97,649.75c0,8.98-7.28,16.25-16.25,16.25c-8.98,0-16.25-7.28-16.25-16.25c0-8.98,7.28-16.25,16.25-16.25  C816.7,633.5,823.97,640.77,823.97,649.75z"
   id="path793" />
<path
   class="st13"
   d="M954,649.75c0,8.98-7.28,16.25-16.25,16.25c-8.98,0-16.25-7.28-16.25-16.25c0-8.98,7.28-16.25,16.25-16.25  C946.72,633.5,954,640.77,954,649.75z"
   id="path795" />
<path
   class="st14"
   d="M693.95,389.7c0,8.98-7.28,16.25-16.25,16.25c-8.98,0-16.25-7.28-16.25-16.25c0-8.98,7.28-16.25,16.25-16.25  C686.68,373.45,693.95,380.72,693.95,389.7z"
   id="path797" />
<text
   class="st5 st7"
   id="text799"
   style="font-style:normal;font-variant:normal;font-weight:normal;font-stretch:normal;font-size:10.66666667px;font-family:LHFEgyptian;-inkscape-font-specification:'LHFEgyptian, Normal';font-variant-ligatures:normal;font-variant-caps:normal;font-variant-numeric:normal;font-feature-settings:normal;text-align:start;writing-mode:lr;text-anchor:start;"
   x="649"
   y="711"><tspan
     sodipodi:role="line"
     id="tspan1426">Neal McDonald 2010: This document is in the public domain. </tspan></text>

<text
   xml:space="preserve"
   style="font-style:normal;font-weight:normal;font-size:40px;line-height:1.25;font-family:sans-serif;letter-spacing:0px;word-spacing:0px;fill:#000000;fill-opacity:1;stroke:none"
   x="108.58064"
   y="134.59355"
   id="text1354"><tspan
     sodipodi:role="line"
     id="tspan1352"
     x="108.58064"
     y="134.59355"
     style="font-style:normal;font-variant:normal;font-weight:normal;font-stretch:normal;font-size:32px;font-family:sans-serif;-inkscape-font-specification:'sans-serif, Normal';font-variant-ligatures:normal;font-variant-caps:normal;font-variant-numeric:normal;font-feature-settings:normal;text-align:start;writing-mode:lr-tb;text-anchor:start">Alquerque</tspan></text>
</svg>