<?xml version="1.0" encoding="UTF-8" standalone="no"?>
<!-- Generator: Adobe Illustrator 24.0.1, SVG Export Plug-In . SVG Version: 6.00 Build 0)  -->

<svg
   xmlns:dc="http://purl.org/dc/elements/1.1/"
   xmlns:cc="http://creativecommons.org/ns#"
   xmlns:rdf="http://www.w3.org/1999/02/22-rdf-syntax-ns#"
   xmlns:svg="http://www.w3.org/2000/svg"
   xmlns="http://www.w3.org/2000/svg"
   xmlns:sodipodi="http://sodipodi.sourceforge.net/DTD/sodipodi-0.dtd"
   xmlns:inkscape="http://www.inkscape.org/namespaces/inkscape"
   version="1.1"
   id="Layer_1"
   x="0px"
   y="0px"
   viewBox="0 0 1224 792"
   style="enable-background:new 0 0 1224 792;"
   xml:space="preserve"
   sodipodi:docname="fiveinaRow.svg"
   inkscape:version="0.92.3 (2405546, 2018-03-11)"><metadata
   id="metadata666"><rdf:RDF><cc:Work
       rdf:about=""><dc:format>image/svg+xml</dc:format><dc:type
         rdf:resource="http://purl.org/dc/dcmitype/StillImage" /></cc:Work></rdf:RDF></metadata><defs
   id="defs664" /><sodipodi:namedview
   pagecolor="#ffffff"
   bordercolor="#666666"
   borderopacity="1"
   objecttolerance="10"
   gridtolerance="10"
   guidetolerance="10"
   inkscape:pageopacity="0"
   inkscape:pageshadow="2"
   inkscape:window-width="1920"
   inkscape:window-height="1052"
   id="namedview662"
   showgrid="false"
   inkscape:zoom="1.0896465"
   inkscape:cx="580.33835"
   inkscape:cy="396"
   inkscape:window-x="0"
   inkscape:window-y="0"
   inkscape:window-maximized="1"
   inkscape:current-layer="Layer_1" />
<style
   type="text/css"
   id="style358">
	.Arched_x0020_Green{fill:url(#SVGID_1_);stroke:#FFFFFF;stroke-width:0.25;stroke-miterlimit:1;}
	.st0{fill:#007C91;}
	.st1{fill:none;}
	.st2{fill:#231F20;}
	.st3{font-family:'LHFCosmicCursiveII';}
	.st4{font-size:33px;}
	.st5{font-family:'LHFEgyptian';}
	.st6{font-size:18px;}
	.st7{font-size:14px;}
	.st8{fill:none;stroke:#000000;}
	.st9{font-family:'MyriadPro-Regular';}
	.st10{font-size:12px;}
	.st11{fill:none;stroke:#231F20;stroke-width:2;}
</style>
<linearGradient
   id="SVGID_1_"
   gradientUnits="userSpaceOnUse"
   x1="0"
   y1="792"
   x2="0.7071"
   y2="791.2929">
	<stop
   offset="0"
   style="stop-color:#1EAB4B"
   id="stop360" />
	<stop
   offset="0.9831"
   style="stop-color:#19361A"
   id="stop362" />
</linearGradient>
<g
   id="g527">
	<g
   id="g525">
		<g
   id="g367">
			<rect
   x="59.19"
   y="601.23"
   class="st0"
   width="16.91"
   height="81.8"
   id="rect365" />
		</g>
		<g
   id="g371">
			<rect
   x="59.19"
   y="519.43"
   class="st0"
   width="16.91"
   height="81.8"
   id="rect369" />
		</g>
		<g
   id="g375">
			<rect
   x="59.19"
   y="437.63"
   class="st0"
   width="16.91"
   height="81.8"
   id="rect373" />
		</g>
		<g
   id="g379">
			<rect
   x="59.19"
   y="355.83"
   class="st0"
   width="16.91"
   height="81.8"
   id="rect377" />
		</g>
		<g
   id="g383">
			<rect
   x="59.19"
   y="274.03"
   class="st0"
   width="16.91"
   height="81.8"
   id="rect381" />
		</g>
		<g
   id="g387">
			<rect
   x="59.19"
   y="192.23"
   class="st0"
   width="16.91"
   height="81.8"
   id="rect385" />
		</g>
		<g
   id="g391">
			<rect
   x="59.19"
   y="110.43"
   class="st0"
   width="16.91"
   height="81.8"
   id="rect389" />
		</g>
		<g
   id="g395">
			<rect
   x="110.43"
   y="59.19"
   class="st0"
   width="78.07"
   height="16.91"
   id="rect393" />
		</g>
		<g
   id="g399">
			<rect
   x="188.51"
   y="59.19"
   class="st0"
   width="78.07"
   height="16.91"
   id="rect397" />
		</g>
		<g
   id="g403">
			<rect
   x="266.58"
   y="59.19"
   class="st0"
   width="78.07"
   height="16.91"
   id="rect401" />
		</g>
		<g
   id="g407">
			<rect
   x="344.65"
   y="59.19"
   class="st0"
   width="78.07"
   height="16.91"
   id="rect405" />
		</g>
		<g
   id="g411">
			<rect
   x="422.72"
   y="59.19"
   class="st0"
   width="78.07"
   height="16.91"
   id="rect409" />
		</g>
		<g
   id="g415">
			<rect
   x="500.8"
   y="59.19"
   class="st0"
   width="78.07"
   height="16.91"
   id="rect413" />
		</g>
		<g
   id="g419">
			<rect
   x="578.87"
   y="59.19"
   class="st0"
   width="78.07"
   height="16.91"
   id="rect417" />
		</g>
		<g
   id="g423">
			<rect
   x="656.94"
   y="59.19"
   class="st0"
   width="78.07"
   height="16.91"
   id="rect421" />
		</g>
		<g
   id="g427">
			<rect
   x="735.02"
   y="59.19"
   class="st0"
   width="78.07"
   height="16.91"
   id="rect425" />
		</g>
		<g
   id="g431">
			<rect
   x="813.09"
   y="59.19"
   class="st0"
   width="78.07"
   height="16.91"
   id="rect429" />
		</g>
		<g
   id="g435">
			<rect
   x="891.16"
   y="59.19"
   class="st0"
   width="78.07"
   height="16.91"
   id="rect433" />
		</g>
		<g
   id="g439">
			<rect
   x="1003.57"
   y="110.43"
   class="st0"
   width="16.91"
   height="81.8"
   id="rect437" />
		</g>
		<g
   id="g443">
			<rect
   x="1003.57"
   y="192.23"
   class="st0"
   width="16.91"
   height="81.8"
   id="rect441" />
		</g>
		<g
   id="g447">
			<rect
   x="1003.57"
   y="274.03"
   class="st0"
   width="16.91"
   height="81.8"
   id="rect445" />
		</g>
		<g
   id="g451">
			<rect
   x="1003.57"
   y="355.83"
   class="st0"
   width="16.91"
   height="81.8"
   id="rect449" />
		</g>
		<g
   id="g455">
			<rect
   x="1003.57"
   y="437.63"
   class="st0"
   width="16.91"
   height="81.8"
   id="rect453" />
		</g>
		<g
   id="g459">
			<rect
   x="1003.57"
   y="519.43"
   class="st0"
   width="16.91"
   height="81.8"
   id="rect457" />
		</g>
		<g
   id="g463">
			<rect
   x="1003.57"
   y="601.23"
   class="st0"
   width="16.91"
   height="81.8"
   id="rect461" />
		</g>
		<g
   id="g467">
			<rect
   x="891.16"
   y="717.37"
   class="st0"
   width="78.07"
   height="16.91"
   id="rect465" />
		</g>
		<g
   id="g471">
			<rect
   x="813.09"
   y="717.37"
   class="st0"
   width="78.07"
   height="16.91"
   id="rect469" />
		</g>
		<g
   id="g475">
			<rect
   x="735.02"
   y="717.37"
   class="st0"
   width="78.07"
   height="16.91"
   id="rect473" />
		</g>
		<g
   id="g479">
			<rect
   x="656.94"
   y="717.37"
   class="st0"
   width="78.07"
   height="16.91"
   id="rect477" />
		</g>
		<g
   id="g483">
			<rect
   x="578.87"
   y="717.37"
   class="st0"
   width="78.07"
   height="16.91"
   id="rect481" />
		</g>
		<g
   id="g487">
			<rect
   x="500.8"
   y="717.37"
   class="st0"
   width="78.07"
   height="16.91"
   id="rect485" />
		</g>
		<g
   id="g491">
			<rect
   x="422.72"
   y="717.37"
   class="st0"
   width="78.07"
   height="16.91"
   id="rect489" />
		</g>
		<g
   id="g495">
			<rect
   x="344.65"
   y="717.37"
   class="st0"
   width="78.07"
   height="16.91"
   id="rect493" />
		</g>
		<g
   id="g499">
			<rect
   x="266.58"
   y="717.37"
   class="st0"
   width="78.07"
   height="16.91"
   id="rect497" />
		</g>
		<g
   id="g503">
			<rect
   x="188.51"
   y="717.37"
   class="st0"
   width="78.07"
   height="16.91"
   id="rect501" />
		</g>
		<g
   id="g507">
			<rect
   x="110.43"
   y="717.37"
   class="st0"
   width="78.07"
   height="16.91"
   id="rect505" />
		</g>
		<g
   id="g511">
			<path
   class="st0"
   d="M110.47,59.17H84.95c0.67,1.97,1.04,4.14,1.04,6.39c0,11.27-9.14,20.4-20.4,20.4c-2.24,0-4.4-0.36-6.41-1.03     v25.54H76.1V98.96c13.63-2.6,20.27-9.23,22.88-22.86h11.49V59.17z"
   id="path509" />
		</g>
		<g
   id="g515">
			<path
   class="st0"
   d="M1020.5,110.47V84.95c-1.97,0.67-4.14,1.04-6.39,1.04c-11.27,0-20.4-9.14-20.4-20.4     c0-2.24,0.36-4.4,1.03-6.41h-25.54V76.1h11.52c2.6,13.63,9.23,20.27,22.86,22.88v11.49H1020.5z"
   id="path513" />
		</g>
		<g
   id="g519">
			<path
   class="st0"
   d="M969.19,734.3h25.52c-0.67-1.97-1.04-4.14-1.04-6.39c0-11.27,9.14-20.4,20.4-20.4c2.24,0,4.4,0.36,6.41,1.03     v-25.54h-16.93v11.52c-13.63,2.6-20.27,9.23-22.88,22.86h-11.49V734.3z"
   id="path517" />
		</g>
		<g
   id="g523">
			<path
   class="st0"
   d="M59.17,682.99v25.52c1.97-0.67,4.14-1.04,6.39-1.04c11.27,0,20.4,9.14,20.4,20.4c0,2.24-0.36,4.4-1.03,6.41     h25.54v-16.93H98.96c-2.6-13.63-9.23-20.27-22.86-22.88v-11.49H59.17z"
   id="path521" />
		</g>
	</g>
</g>
<rect
   x="109.33"
   y="109.4"
   class="st1"
   width="250.33"
   height="574.67"
   id="rect529" />
<text
   transform="scale(0.95979164,1.0418928)"
   id="text591"
   style="font-style:normal;font-variant:normal;font-weight:normal;font-stretch:normal;font-size:11.51746559px;font-family:sans-serif;-inkscape-font-specification:'sans-serif, Normal';font-variant-ligatures:normal;font-variant-caps:normal;font-variant-numeric:normal;font-feature-settings:normal;text-align:start;writing-mode:lr-tb;text-anchor:start;stroke-width:0.95979166"
   x="113.91379"
   y="163.95992"><tspan
     sodipodi:role="line"
     id="tspan1042"
     x="113.91379"
     y="163.95992"
     style="stroke-width:0.95979166">a 10-minute board game for two players</tspan><tspan
     sodipodi:role="line"
     id="tspan1044"
     x="113.91379"
     y="178.35675"
     style="stroke-width:0.95979166"></tspan><tspan
     sodipodi:role="line"
     id="tspan1046"
     x="113.91379"
     y="192.75359"
     style="stroke-width:0.95979166">EQUIPMENT: </tspan><tspan
     sodipodi:role="line"
     id="tspan1048"
     x="113.91379"
     y="207.15041"
     style="stroke-width:0.95979166">You will need two sets of up to 41 markers, but, </tspan><tspan
     sodipodi:role="line"
     id="tspan1050"
     x="113.91379"
     y="221.54724"
     style="stroke-width:0.95979166">usually, 20 is plenty. You could also simply</tspan><tspan
     sodipodi:role="line"
     id="tspan1052"
     x="113.91379"
     y="235.94408"
     style="stroke-width:0.95979166">write on this board. </tspan><tspan
     sodipodi:role="line"
     id="tspan1054"
     x="113.91379"
     y="250.34091"
     style="stroke-width:0.95979166"></tspan><tspan
     sodipodi:role="line"
     id="tspan1056"
     x="113.91379"
     y="264.73773"
     style="stroke-width:0.95979166">HOW TO PLAY:</tspan><tspan
     sodipodi:role="line"
     id="tspan1058"
     x="113.91379"
     y="279.13458"
     style="stroke-width:0.95979166">Players take turns placing one marker onto </tspan><tspan
     sodipodi:role="line"
     id="tspan1060"
     x="113.91379"
     y="293.5314"
     style="stroke-width:0.95979166">a point where the lines cross. Once placed, </tspan><tspan
     sodipodi:role="line"
     id="tspan1062"
     x="113.91379"
     y="307.92822"
     style="stroke-width:0.95979166">markers do not move.  </tspan><tspan
     sodipodi:role="line"
     id="tspan1064"
     x="113.91379"
     y="322.32507"
     style="stroke-width:0.95979166"></tspan><tspan
     sodipodi:role="line"
     id="tspan1066"
     x="113.91379"
     y="336.72189"
     style="stroke-width:0.95979166">WINNING: </tspan><tspan
     sodipodi:role="line"
     id="tspan1068"
     x="113.91379"
     y="351.11874"
     style="stroke-width:0.95979166">The first player to make a row of 5 adjacent</tspan><tspan
     sodipodi:role="line"
     id="tspan1070"
     x="113.91379"
     y="365.51556"
     style="stroke-width:0.95979166">markers, horizontally, vertically, or diagonally,</tspan><tspan
     sodipodi:role="line"
     id="tspan1072"
     x="113.91379"
     y="379.91238"
     style="stroke-width:0.95979166">wins. </tspan><tspan
     sodipodi:role="line"
     id="tspan1074"
     x="113.91379"
     y="394.30923"
     style="stroke-width:0.95979166"></tspan><tspan
     sodipodi:role="line"
     id="tspan1076"
     x="113.91379"
     y="408.70605"
     style="stroke-width:0.95979166">POLITENESS:  </tspan><tspan
     sodipodi:role="line"
     id="tspan1078"
     x="113.91379"
     y="423.10291"
     style="stroke-width:0.95979166">Players making 3 or 4 in a row should say so;</tspan><tspan
     sodipodi:role="line"
     id="tspan1080"
     x="113.91379"
     y="437.49973"
     style="stroke-width:0.95979166">failure to do so will make the game much shorter. </tspan><tspan
     sodipodi:role="line"
     id="tspan1082"
     x="113.91379"
     y="451.89655"
     style="stroke-width:0.95979166"></tspan><tspan
     sodipodi:role="line"
     id="tspan1084"
     x="113.91379"
     y="466.2934"
     style="stroke-width:0.95979166">A NOTE ON GRID SIZE:  </tspan><tspan
     sodipodi:role="line"
     id="tspan1086"
     x="113.91379"
     y="480.69022"
     style="stroke-width:0.95979166">This is a grid of 9x9 points. Players desiring a </tspan><tspan
     sodipodi:role="line"
     id="tspan1088"
     x="113.91379"
     y="495.08704"
     style="stroke-width:0.95979166">shorter or easier game might play only the</tspan><tspan
     sodipodi:role="line"
     id="tspan1090"
     x="113.91379"
     y="509.48389"
     style="stroke-width:0.95979166">center 5x5 squares. </tspan><tspan
     sodipodi:role="line"
     id="tspan1092"
     x="113.91379"
     y="523.88074"
     style="stroke-width:0.95979166"></tspan><tspan
     sodipodi:role="line"
     id="tspan1094"
     x="113.91379"
     y="538.27759"
     style="stroke-width:0.95979166">Players who are extra smart might want to </tspan><tspan
     sodipodi:role="line"
     id="tspan1096"
     x="113.91379"
     y="552.67444"
     style="stroke-width:0.95979166">subdivide the grid to play on more points. </tspan><tspan
     sodipodi:role="line"
     id="tspan1098"
     x="113.91379"
     y="567.07123"
     style="stroke-width:0.95979166"></tspan><tspan
     sodipodi:role="line"
     id="tspan1100"
     x="113.91379"
     y="581.46808"
     style="stroke-width:0.95979166">HISTORY:  </tspan><tspan
     sodipodi:role="line"
     id="tspan1102"
     x="113.91379"
     y="595.86493"
     style="stroke-width:0.95979166">This is a traditional Japanese game; its name in </tspan><tspan
     sodipodi:role="line"
     id="tspan1104"
     x="113.91379"
     y="610.26172"
     style="stroke-width:0.95979166">Japanese is “Go-Moku”. Many other cultures </tspan><tspan
     sodipodi:role="line"
     id="tspan1106"
     x="113.91379"
     y="624.65857"
     style="stroke-width:0.95979166">have similar games. </tspan></text>

<line
   class="st1"
   x1="0"
   y1="755.6"
   x2="35.71"
   y2="755.6"
   id="line593" />
<line
   class="st8"
   x1="35.71"
   y1="755.6"
   x2="35.71"
   y2="792"
   id="line595" />
<line
   class="st8"
   x1="0"
   y1="35.67"
   x2="35.71"
   y2="35.67"
   id="line597" />
<line
   class="st8"
   x1="35.71"
   y1="35.67"
   x2="35.71"
   y2="0"
   id="line599" />
<line
   class="st8"
   x1="1043.67"
   y1="0"
   x2="1043.67"
   y2="35.67"
   id="line601" />
<line
   class="st8"
   x1="1043.67"
   y1="35.67"
   x2="1084.33"
   y2="35.67"
   id="line603" />
<text
   transform="matrix(1 0 0 1 1060.333 53.667)"
   id="text609"><tspan
     x="0"
     y="0"
     class="st9 st10"
     id="tspan605">Corners indicate 10”x14”</tspan><tspan
     x="0"
     y="14.4"
     class="st9 st10"
     id="tspan607">standard placemat size</tspan></text>

<line
   class="st1"
   x1="0"
   y1="755.6"
   x2="35.71"
   y2="755.6"
   id="line611" />
<line
   class="st8"
   x1="35.71"
   y1="755.6"
   x2="35.71"
   y2="792"
   id="line613" />
<line
   class="st8"
   x1="1043.67"
   y1="755.6"
   x2="1043.67"
   y2="792"
   id="line615" />
<line
   class="st8"
   x1="1043.67"
   y1="755.6"
   x2="1153.67"
   y2="755.6"
   id="line617" />
<line
   class="st8"
   x1="35.71"
   y1="755.6"
   x2="0"
   y2="755.6"
   id="line619" />
<g
   id="g657">
	<line
   class="st11"
   x1="396"
   y1="108"
   x2="972"
   y2="108"
   id="line621" />
	<line
   class="st11"
   x1="972"
   y1="108"
   x2="972"
   y2="684"
   id="line623" />
	<line
   class="st11"
   x1="900"
   y1="108"
   x2="900"
   y2="684"
   id="line625" />
	<line
   class="st11"
   x1="828"
   y1="108"
   x2="828"
   y2="684"
   id="line627" />
	<line
   class="st11"
   x1="756"
   y1="108"
   x2="756"
   y2="684"
   id="line629" />
	<line
   class="st11"
   x1="684"
   y1="108"
   x2="684"
   y2="684"
   id="line631" />
	<line
   class="st11"
   x1="612"
   y1="108"
   x2="612"
   y2="684"
   id="line633" />
	<line
   class="st11"
   x1="540"
   y1="108"
   x2="540"
   y2="684"
   id="line635" />
	<line
   class="st11"
   x1="468"
   y1="108"
   x2="468"
   y2="684"
   id="line637" />
	<line
   class="st11"
   x1="396"
   y1="108"
   x2="396"
   y2="684"
   id="line639" />
	<line
   class="st11"
   x1="972"
   y1="180"
   x2="396"
   y2="180"
   id="line641" />
	<line
   class="st11"
   x1="972"
   y1="252"
   x2="396"
   y2="252"
   id="line643" />
	<line
   class="st11"
   x1="972"
   y1="324"
   x2="396"
   y2="324"
   id="line645" />
	<line
   class="st11"
   x1="972"
   y1="396"
   x2="396"
   y2="396"
   id="line647" />
	<line
   class="st11"
   x1="972"
   y1="468"
   x2="396"
   y2="468"
   id="line649" />
	<line
   class="st11"
   x1="972"
   y1="540"
   x2="396"
   y2="540"
   id="line651" />
	<line
   class="st11"
   x1="972"
   y1="612"
   x2="396"
   y2="612"
   id="line653" />
	<line
   class="st11"
   x1="972"
   y1="684"
   x2="396"
   y2="684"
   id="line655" />
</g>
<text
   class="st5 st7"
   id="text659"
   style="font-style:normal;font-variant:normal;font-weight:normal;font-stretch:normal;font-size:10.66666698px;font-family:LHFEgyptian;-inkscape-font-specification:'LHFEgyptian, Normal';font-variant-ligatures:normal;font-variant-caps:normal;font-variant-numeric:normal;font-feature-settings:normal;text-align:start;writing-mode:lr-tb;text-anchor:start"
   x="649"
   y="711"><tspan
     sodipodi:role="line"
     id="tspan668"
     x="649"
     y="711">Neal McDonald 2010; this document is in the public domain.</tspan></text>

<text
   xml:space="preserve"
   style="font-style:normal;font-variant:normal;font-weight:normal;font-stretch:normal;font-size:32px;line-height:1.25;font-family:sans-serif;-inkscape-font-specification:'sans-serif, Normal';font-variant-ligatures:normal;font-variant-caps:normal;font-variant-numeric:normal;font-feature-settings:normal;text-align:start;letter-spacing:0px;word-spacing:0px;writing-mode:lr-tb;text-anchor:start;fill:#000000;fill-opacity:1;stroke:none"
   x="107.20972"
   y="152.34299"
   id="text1110"><tspan
     sodipodi:role="line"
     id="tspan1108"
     x="107.20972"
     y="152.34299">5 in a Row</tspan></text>
</svg>