<?xml version="1.0" encoding="UTF-8" standalone="no"?>
<!-- Generator: Adobe Illustrator 24.0.1, SVG Export Plug-In . SVG Version: 6.00 Build 0)  -->

<svg
   xmlns:dc="http://purl.org/dc/elements/1.1/"
   xmlns:cc="http://creativecommons.org/ns#"
   xmlns:rdf="http://www.w3.org/1999/02/22-rdf-syntax-ns#"
   xmlns:svg="http://www.w3.org/2000/svg"
   xmlns="http://www.w3.org/2000/svg"
   xmlns:sodipodi="http://sodipodi.sourceforge.net/DTD/sodipodi-0.dtd"
   xmlns:inkscape="http://www.inkscape.org/namespaces/inkscape"
   version="1.1"
   id="Layer_1"
   x="0px"
   y="0px"
   viewBox="0 0 1224 792"
   style="enable-background:new 0 0 1224 792;"
   xml:space="preserve"
   sodipodi:docname="foxAndGeese2.svg"
   inkscape:version="0.92.3 (2405546, 2018-03-11)"><sodipodi:namedview
   pagecolor="#ffffff"
   bordercolor="#666666"
   borderopacity="1"
   objecttolerance="10"
   gridtolerance="10"
   guidetolerance="10"
   inkscape:pageopacity="0"
   inkscape:pageshadow="2"
   inkscape:window-width="1366"
   inkscape:window-height="707"
   id="namedview1936"
   showgrid="false"
   inkscape:zoom="4.0522876"
   inkscape:cx="211.49292"
   inkscape:cy="67.362883"
   inkscape:window-x="0"
   inkscape:window-y="0"
   inkscape:window-maximized="1"
   inkscape:current-layer="Layer_1" /><metadata
   id="metadata1940"><rdf:RDF><cc:Work
       rdf:about=""><dc:format>image/svg+xml</dc:format><dc:type
         rdf:resource="http://purl.org/dc/dcmitype/StillImage" /></cc:Work></rdf:RDF></metadata><defs
   id="defs1938" />
<style
   type="text/css"
   id="style1546">
	.Arched_x0020_Green{fill:url(#SVGID_1_);stroke:#FFFFFF;stroke-width:0.25;stroke-miterlimit:1;}
	.st0{fill:#007C91;}
	.st1{fill:none;}
	.st2{fill:#231F20;}
	.st3{font-family:'LHFCosmicCursiveII';}
	.st4{font-size:33px;}
	.st5{font-family:'LHFEgyptian';}
	.st6{font-size:18px;}
	.st7{font-size:14px;}
	.st8{fill:none;stroke:#000000;stroke-width:2;}
	.st9{fill:#808080;stroke:#000000;stroke-width:2;}
	.st10{fill:#FFFFFF;stroke:#000000;stroke-width:2;}
	.st11{stroke:#000000;stroke-width:2;}
	.st12{fill:none;stroke:#000000;}
	.st13{font-family:'MyriadPro-Regular';}
	.st14{font-size:12px;}
</style>
<linearGradient
   id="SVGID_1_"
   gradientUnits="userSpaceOnUse"
   x1="0"
   y1="792"
   x2="0.7071"
   y2="791.2929">
	<stop
   offset="0"
   style="stop-color:#1EAB4B"
   id="stop1548" />
	<stop
   offset="0.9831"
   style="stop-color:#19361A"
   id="stop1550" />
</linearGradient>
<text
   transform="scale(0.95979164,1.0418928)"
   id="text7482"
   style="font-style:normal;font-variant:normal;font-weight:normal;font-stretch:normal;font-size:11.51746655px;font-family:sans-serif;-inkscape-font-specification:'sans-serif, Normal';font-variant-ligatures:normal;font-variant-caps:normal;font-variant-numeric:normal;font-feature-settings:normal;text-align:start;writing-mode:lr-tb;text-anchor:start;stroke-width:0.95979166"
   x="120.12102"
   y="155.38559"><tspan
     sodipodi:role="line"
     id="tspan7480"
     x="120.12102"
     y="155.38559">EQUIPMENT: </tspan></text>
<g
   id="g1715">
	<g
   id="g1713">
		<g
   id="g1555">
			<rect
   x="59.19"
   y="601.23"
   class="st0"
   width="16.91"
   height="81.8"
   id="rect1553" />
		</g>
		<g
   id="g1559">
			<rect
   x="59.19"
   y="519.43"
   class="st0"
   width="16.91"
   height="81.8"
   id="rect1557" />
		</g>
		<g
   id="g1563">
			<rect
   x="59.19"
   y="437.63"
   class="st0"
   width="16.91"
   height="81.8"
   id="rect1561" />
		</g>
		<g
   id="g1567">
			<rect
   x="59.19"
   y="355.83"
   class="st0"
   width="16.91"
   height="81.8"
   id="rect1565" />
		</g>
		<g
   id="g1571">
			<rect
   x="59.19"
   y="274.03"
   class="st0"
   width="16.91"
   height="81.8"
   id="rect1569" />
		</g>
		<g
   id="g1575">
			<rect
   x="59.19"
   y="192.23"
   class="st0"
   width="16.91"
   height="81.8"
   id="rect1573" />
		</g>
		<g
   id="g1579">
			<rect
   x="59.19"
   y="110.43"
   class="st0"
   width="16.91"
   height="81.8"
   id="rect1577" />
		</g>
		<g
   id="g1583">
			<rect
   x="110.43"
   y="59.19"
   class="st0"
   width="78.07"
   height="16.91"
   id="rect1581" />
		</g>
		<g
   id="g1587">
			<rect
   x="188.51"
   y="59.19"
   class="st0"
   width="78.07"
   height="16.91"
   id="rect1585" />
		</g>
		<g
   id="g1591">
			<rect
   x="266.58"
   y="59.19"
   class="st0"
   width="78.07"
   height="16.91"
   id="rect1589" />
		</g>
		<g
   id="g1595">
			<rect
   x="344.65"
   y="59.19"
   class="st0"
   width="78.07"
   height="16.91"
   id="rect1593" />
		</g>
		<g
   id="g1599">
			<rect
   x="422.72"
   y="59.19"
   class="st0"
   width="78.07"
   height="16.91"
   id="rect1597" />
		</g>
		<g
   id="g1603">
			<rect
   x="500.8"
   y="59.19"
   class="st0"
   width="78.07"
   height="16.91"
   id="rect1601" />
		</g>
		<g
   id="g1607">
			<rect
   x="578.87"
   y="59.19"
   class="st0"
   width="78.07"
   height="16.91"
   id="rect1605" />
		</g>
		<g
   id="g1611">
			<rect
   x="656.94"
   y="59.19"
   class="st0"
   width="78.07"
   height="16.91"
   id="rect1609" />
		</g>
		<g
   id="g1615">
			<rect
   x="735.02"
   y="59.19"
   class="st0"
   width="78.07"
   height="16.91"
   id="rect1613" />
		</g>
		<g
   id="g1619">
			<rect
   x="813.09"
   y="59.19"
   class="st0"
   width="78.07"
   height="16.91"
   id="rect1617" />
		</g>
		<g
   id="g1623">
			<rect
   x="891.16"
   y="59.19"
   class="st0"
   width="78.07"
   height="16.91"
   id="rect1621" />
		</g>
		<g
   id="g1627">
			<rect
   x="1003.57"
   y="110.43"
   class="st0"
   width="16.91"
   height="81.8"
   id="rect1625" />
		</g>
		<g
   id="g1631">
			<rect
   x="1003.57"
   y="192.23"
   class="st0"
   width="16.91"
   height="81.8"
   id="rect1629" />
		</g>
		<g
   id="g1635">
			<rect
   x="1003.57"
   y="274.03"
   class="st0"
   width="16.91"
   height="81.8"
   id="rect1633" />
		</g>
		<g
   id="g1639">
			<rect
   x="1003.57"
   y="355.83"
   class="st0"
   width="16.91"
   height="81.8"
   id="rect1637" />
		</g>
		<g
   id="g1643">
			<rect
   x="1003.57"
   y="437.63"
   class="st0"
   width="16.91"
   height="81.8"
   id="rect1641" />
		</g>
		<g
   id="g1647">
			<rect
   x="1003.57"
   y="519.43"
   class="st0"
   width="16.91"
   height="81.8"
   id="rect1645" />
		</g>
		<g
   id="g1651">
			<rect
   x="1003.57"
   y="601.23"
   class="st0"
   width="16.91"
   height="81.8"
   id="rect1649" />
		</g>
		<g
   id="g1655">
			<rect
   x="891.16"
   y="717.37"
   class="st0"
   width="78.07"
   height="16.91"
   id="rect1653" />
		</g>
		<g
   id="g1659">
			<rect
   x="813.09"
   y="717.37"
   class="st0"
   width="78.07"
   height="16.91"
   id="rect1657" />
		</g>
		<g
   id="g1663">
			<rect
   x="735.02"
   y="717.37"
   class="st0"
   width="78.07"
   height="16.91"
   id="rect1661" />
		</g>
		<g
   id="g1667">
			<rect
   x="656.94"
   y="717.37"
   class="st0"
   width="78.07"
   height="16.91"
   id="rect1665" />
		</g>
		<g
   id="g1671">
			<rect
   x="578.87"
   y="717.37"
   class="st0"
   width="78.07"
   height="16.91"
   id="rect1669" />
		</g>
		<g
   id="g1675">
			<rect
   x="500.8"
   y="717.37"
   class="st0"
   width="78.07"
   height="16.91"
   id="rect1673" />
		</g>
		<g
   id="g1679">
			<rect
   x="422.72"
   y="717.37"
   class="st0"
   width="78.07"
   height="16.91"
   id="rect1677" />
		</g>
		<g
   id="g1683">
			<rect
   x="344.65"
   y="717.37"
   class="st0"
   width="78.07"
   height="16.91"
   id="rect1681" />
		</g>
		<g
   id="g1687">
			<rect
   x="266.58"
   y="717.37"
   class="st0"
   width="78.07"
   height="16.91"
   id="rect1685" />
		</g>
		<g
   id="g1691">
			<rect
   x="188.51"
   y="717.37"
   class="st0"
   width="78.07"
   height="16.91"
   id="rect1689" />
		</g>
		<g
   id="g1695">
			<rect
   x="110.43"
   y="717.37"
   class="st0"
   width="78.07"
   height="16.91"
   id="rect1693" />
		</g>
		<g
   id="g1699">
			<path
   class="st0"
   d="M110.47,59.17H84.95c0.67,1.97,1.04,4.14,1.04,6.39c0,11.27-9.14,20.4-20.4,20.4c-2.24,0-4.4-0.36-6.41-1.03     v25.54H76.1V98.96c13.63-2.6,20.27-9.23,22.88-22.86h11.49V59.17z"
   id="path1697" />
		</g>
		<g
   id="g1703">
			<path
   class="st0"
   d="M1020.5,110.47V84.95c-1.97,0.67-4.14,1.04-6.39,1.04c-11.27,0-20.4-9.14-20.4-20.4     c0-2.24,0.36-4.4,1.03-6.41h-25.54V76.1h11.52c2.6,13.63,9.23,20.27,22.86,22.88v11.49H1020.5z"
   id="path1701" />
		</g>
		<g
   id="g1707">
			<path
   class="st0"
   d="M969.19,734.3h25.52c-0.67-1.97-1.04-4.14-1.04-6.39c0-11.27,9.14-20.4,20.4-20.4c2.24,0,4.4,0.36,6.41,1.03     v-25.54h-16.93v11.52c-13.63,2.6-20.27,9.23-22.88,22.86h-11.49V734.3z"
   id="path1705" />
		</g>
		<g
   id="g1711">
			<path
   class="st0"
   d="M59.17,682.99v25.52c1.97-0.67,4.14-1.04,6.39-1.04c11.27,0,20.4,9.14,20.4,20.4c0,2.24-0.36,4.4-1.03,6.41     h25.54v-16.93H98.96c-2.6-13.63-9.23-20.27-22.86-22.88v-11.49H59.17z"
   id="path1709" />
		</g>
	</g>
</g>
<rect
   x="109.33"
   y="109.4"
   class="st1"
   width="250.33"
   height="574.67"
   id="rect1717" />




<rect
   x="604.58"
   y="157.98"
   class="st8"
   width="158.4"
   height="475.2"
   id="rect1799" />
<rect
   x="446.18"
   y="316.38"
   class="st8"
   width="475.2"
   height="158.4"
   id="rect1801" />
<line
   class="st8"
   x1="446.18"
   y1="395.58"
   x2="921.38"
   y2="395.58"
   id="line1803" />
<line
   class="st8"
   x1="683.78"
   y1="156.15"
   x2="683.78"
   y2="633.18"
   id="line1805" />
<line
   class="st8"
   x1="446.18"
   y1="474.78"
   x2="762.98"
   y2="157.98"
   id="line1807" />
<line
   class="st8"
   x1="604.58"
   y1="157.98"
   x2="921.38"
   y2="474.78"
   id="line1809" />
<line
   class="st8"
   x1="921.38"
   y1="316.38"
   x2="604.58"
   y2="633.18"
   id="line1811" />
<line
   class="st8"
   x1="446.18"
   y1="316.38"
   x2="759.86"
   y2="630.07"
   id="line1813" />
<line
   class="st8"
   x1="683.59"
   y1="553.79"
   x2="762.98"
   y2="553.79"
   id="line1815" />
<line
   class="st8"
   x1="683.59"
   y1="553.79"
   x2="604.94"
   y2="553.79"
   id="line1817" />
<line
   class="st8"
   x1="525.01"
   y1="395.95"
   x2="525.01"
   y2="473.22"
   id="line1819" />
<line
   class="st8"
   x1="525.01"
   y1="395.95"
   x2="525.01"
   y2="316.38"
   id="line1821" />
<line
   class="st8"
   x1="604.58"
   y1="316.38"
   x2="762.98"
   y2="474.78"
   id="line1823" />
<line
   class="st8"
   x1="762.98"
   y1="316.38"
   x2="604.58"
   y2="474.78"
   id="line1825" />
<line
   class="st8"
   x1="683.59"
   y1="553.79"
   x2="762.98"
   y2="633.18"
   id="line1827" />
<line
   class="st8"
   x1="842.18"
   y1="395.58"
   x2="842.18"
   y2="316.38"
   id="line1829" />
<line
   class="st8"
   x1="842.18"
   y1="395.58"
   x2="842.18"
   y2="474.78"
   id="line1831" />
<line
   class="st8"
   x1="683.59"
   y1="237.37"
   x2="762.98"
   y2="237.37"
   id="line1833" />
<line
   class="st8"
   x1="683.59"
   y1="237.37"
   x2="604.58"
   y2="237.37"
   id="line1835" />
<path
   class="st9"
   d="M697.71,395.58c0,7.7-6.24,13.93-13.93,13.93c-7.69,0-13.93-6.24-13.93-13.93c0-7.7,6.24-13.93,13.93-13.93  C691.47,381.65,697.71,387.89,697.71,395.58z"
   id="path1837" />
<path
   class="st10"
   d="M697.71,157.84c0,7.7-6.24,13.93-13.93,13.93c-7.69,0-13.93-6.24-13.93-13.93s6.24-13.93,13.93-13.93  C691.47,143.91,697.71,150.15,697.71,157.84z"
   id="path1839" />
<path
   class="st10"
   d="M776.91,157.98c0,7.7-6.24,13.93-13.93,13.93c-7.7,0-13.93-6.24-13.93-13.93s6.24-13.93,13.93-13.93  C770.67,144.05,776.91,150.29,776.91,157.98z"
   id="path1841" />
<path
   class="st10"
   d="M618.51,237.37c0,7.7-6.24,13.93-13.93,13.93c-7.69,0-13.93-6.24-13.93-13.93c0-7.7,6.24-13.93,13.93-13.93  C612.27,223.44,618.51,229.68,618.51,237.37z"
   id="path1843" />
<path
   class="st10"
   d="M776.91,237.37c0,7.7-6.24,13.93-13.93,13.93c-7.7,0-13.93-6.24-13.93-13.93s6.24-13.93,13.93-13.93  C770.67,223.44,776.91,229.68,776.91,237.37z"
   id="path1845" />
<path
   class="st10"
   d="M618.51,157.98c0,7.7-6.24,13.93-13.93,13.93c-7.69,0-13.93-6.24-13.93-13.93s6.24-13.93,13.93-13.93  C612.27,144.05,618.51,150.29,618.51,157.98z"
   id="path1847" />
<circle
   class="st10"
   cx="683.59"
   cy="237.37"
   r="13.93"
   id="circle1849" />
<path
   class="st10"
   d="M618.51,316.38c0,7.7-6.24,13.93-13.93,13.93c-7.69,0-13.93-6.24-13.93-13.93c0-7.7,6.24-13.93,13.93-13.93  C612.27,302.45,618.51,308.69,618.51,316.38z"
   id="path1851" />
<path
   class="st10"
   d="M697.71,316.38c0,7.7-6.24,13.93-13.93,13.93c-7.7,0-13.93-6.24-13.93-13.93c0-7.7,6.24-13.93,13.93-13.93  C691.47,302.45,697.71,308.69,697.71,316.38z"
   id="path1853" />
<path
   class="st10"
   d="M776.91,316.38c0,7.7-6.24,13.93-13.93,13.93c-7.69,0-13.93-6.24-13.93-13.93c0-7.7,6.24-13.93,13.93-13.93  C770.67,302.45,776.91,308.69,776.91,316.38z"
   id="path1855" />
<circle
   class="st10"
   cx="842.18"
   cy="395.58"
   r="13.93"
   id="circle1857" />
<path
   class="st10"
   d="M935.31,316.38c0,7.7-6.24,13.93-13.93,13.93c-7.7,0-13.93-6.24-13.93-13.93c0-7.7,6.24-13.93,13.93-13.93  C929.07,302.45,935.31,308.69,935.31,316.38z"
   id="path1859" />
<path
   class="st10"
   d="M856.11,316.38c0,7.7-6.24,13.93-13.93,13.93c-7.7,0-13.93-6.24-13.93-13.93c0-7.7,6.24-13.93,13.93-13.93  C849.87,302.45,856.11,308.69,856.11,316.38z"
   id="path1861" />
<ellipse
   transform="matrix(1 -2.522092e-03 2.522092e-03 1 -0.993 1.9256)"
   class="st10"
   cx="762.98"
   cy="394.67"
   rx="13.93"
   ry="13.93"
   id="ellipse1863" />
<ellipse
   transform="matrix(0.0337 -0.9994 0.9994 0.0337 494.8021 1302.948)"
   class="st10"
   cx="921.23"
   cy="395.58"
   rx="13.93"
   ry="13.93"
   id="ellipse1865" />
<path
   class="st11"
   d="M935.31,474.78c0,7.7-6.24,13.93-13.93,13.93c-7.7,0-13.93-6.24-13.93-13.93c0-7.69,6.24-13.93,13.93-13.93  C929.07,460.85,935.31,467.09,935.31,474.78z"
   id="path1867" />
<circle
   class="st11"
   cx="762.98"
   cy="474.78"
   r="13.93"
   id="circle1869" />
<path
   class="st10"
   d="M697.71,474.64c0,7.7-6.24,13.93-13.93,13.93c-7.69,0-13.93-6.24-13.93-13.93c0-7.69,6.24-13.93,13.93-13.93  C691.47,460.71,697.71,466.95,697.71,474.64z"
   id="path1871" />
<circle
   class="st11"
   cx="842.18"
   cy="474.78"
   r="13.93"
   id="circle1873" />
<path
   class="st10"
   d="M460.11,316.38c0,7.7-6.24,13.93-13.93,13.93c-7.7,0-13.93-6.24-13.93-13.93c0-7.7,6.24-13.93,13.93-13.93  C453.87,302.45,460.11,308.69,460.11,316.38z"
   id="path1875" />
<path
   class="st11"
   d="M697.52,553.8c0,7.7-6.24,13.93-13.93,13.93c-7.69,0-13.93-6.24-13.93-13.93c0-7.7,6.24-13.93,13.93-13.93  C691.28,539.86,697.52,546.1,697.52,553.8z"
   id="path1877" />
<path
   class="st11"
   d="M697.52,474.59c0,7.7-6.24,13.93-13.93,13.93c-7.7,0-13.93-6.24-13.93-13.93c0-7.7,6.24-13.93,13.93-13.93  C691.28,460.66,697.52,466.9,697.52,474.59z"
   id="path1879" />
<circle
   class="st11"
   cx="604.39"
   cy="552.88"
   r="13.93"
   id="circle1881" />
<path
   class="st11"
   d="M776.58,553.79c0,7.7-6.24,13.93-13.93,13.93c-7.69,0-13.93-6.24-13.93-13.93s6.24-13.93,13.93-13.93  C770.34,539.86,776.58,546.1,776.58,553.79z"
   id="path1883" />
<path
   class="st11"
   d="M776.72,633c0,7.7-6.24,13.93-13.93,13.93c-7.7,0-13.93-6.24-13.93-13.93c0-7.69,6.24-13.93,13.93-13.93  C770.48,619.06,776.72,625.3,776.72,633z"
   id="path1885" />
<ellipse
   transform="matrix(0.9999 -0.0135 0.0135 0.9999 -8.4968 8.2232)"
   class="st11"
   cx="604.39"
   cy="632.99"
   rx="13.93"
   ry="13.93"
   id="ellipse1887" />
<ellipse
   transform="matrix(0.9999 -0.0135 0.0135 0.9999 -8.4895 9.2932)"
   class="st11"
   cx="683.59"
   cy="632.99"
   rx="13.93"
   ry="13.93"
   id="ellipse1889" />
<path
   class="st10"
   d="M538.94,395.95c0,7.7-6.24,13.93-13.93,13.93c-7.7,0-13.93-6.24-13.93-13.93c0-7.7,6.24-13.93,13.93-13.93  C532.71,382.02,538.94,388.25,538.94,395.95z"
   id="path1891" />
<path
   class="st10"
   d="M538.94,316.75c0,7.7-6.24,13.93-13.93,13.93c-7.7,0-13.93-6.24-13.93-13.93c0-7.7,6.24-13.93,13.93-13.93  C532.71,302.82,538.94,309.05,538.94,316.75z"
   id="path1893" />
<circle
   class="st10"
   cx="445.81"
   cy="395.03"
   r="13.93"
   id="circle1895" />
<path
   class="st10"
   d="M618,395.95c0,7.7-6.24,13.93-13.93,13.93c-7.69,0-13.93-6.24-13.93-13.93c0-7.7,6.24-13.93,13.93-13.93  C611.76,382.02,618,388.25,618,395.95z"
   id="path1897" />
<path
   class="st11"
   d="M618.14,475.15c0,7.7-6.24,13.93-13.93,13.93c-7.69,0-13.93-6.24-13.93-13.93c0-7.7,6.24-13.93,13.93-13.93  C611.91,461.22,618.14,467.46,618.14,475.15z"
   id="path1899" />
<ellipse
   transform="matrix(1.036869e-03 -1 1 1.036869e-03 -29.8009 920.467)"
   class="st11"
   cx="445.81"
   cy="475.15"
   rx="13.93"
   ry="13.93"
   id="ellipse1901" />
<path
   class="st11"
   d="M538.94,475.15c0,7.7-6.24,13.93-13.93,13.93c-7.7,0-13.93-6.24-13.93-13.93c0-7.7,6.24-13.93,13.93-13.93  C532.71,461.22,538.94,467.45,538.94,475.15z"
   id="path1903" />
<line
   class="st1"
   x1="0"
   y1="755.6"
   x2="35.71"
   y2="755.6"
   id="line1905" />
<line
   class="st12"
   x1="35.71"
   y1="755.6"
   x2="35.71"
   y2="792"
   id="line1907" />
<line
   class="st12"
   x1="0"
   y1="35.67"
   x2="35.71"
   y2="35.67"
   id="line1909" />
<line
   class="st12"
   x1="35.71"
   y1="35.67"
   x2="35.71"
   y2="0"
   id="line1911" />
<line
   class="st12"
   x1="1043.67"
   y1="0"
   x2="1043.67"
   y2="35.67"
   id="line1913" />
<line
   class="st12"
   x1="1043.67"
   y1="35.67"
   x2="1084.33"
   y2="35.67"
   id="line1915" />
<text
   transform="matrix(1 0 0 1 1060.333 53.667)"
   id="text1921"><tspan
     x="0"
     y="0"
     class="st13 st14"
     id="tspan1917">Corners indicate 10”x14”</tspan><tspan
     x="0"
     y="14.4"
     class="st13 st14"
     id="tspan1919">standard placemat size</tspan></text>




<line
   class="st1"
   x1="0"
   y1="755.6"
   x2="35.71"
   y2="755.6"
   id="line1923" />
<line
   class="st12"
   x1="35.71"
   y1="755.6"
   x2="35.71"
   y2="792"
   id="line1925" />
<line
   class="st12"
   x1="1043.67"
   y1="755.6"
   x2="1043.67"
   y2="792"
   id="line1927" />
<line
   class="st12"
   x1="1043.67"
   y1="755.6"
   x2="1153.67"
   y2="755.6"
   id="line1929" />
<line
   class="st12"
   x1="35.71"
   y1="755.6"
   x2="0"
   y2="755.6"
   id="line1931" />
<text
   class="st5 st7"
   id="text1933"
   style="font-style:normal;font-variant:normal;font-weight:normal;font-stretch:normal;font-size:12px;font-family:LHFEgyptian;-inkscape-font-specification:'LHFEgyptian, Normal';font-variant-ligatures:normal;font-variant-caps:normal;font-variant-numeric:normal;font-feature-settings:normal;text-align:start;writing-mode:lr-tb;text-anchor:start"
   x="615.5"
   y="712.5"><tspan
     sodipodi:role="line"
     id="tspan1942"
     x="615.5"
     y="712.5">Neal McDonald 2010; this document is in the public domain.</tspan></text>




<text
   xml:space="preserve"
   style="font-style:normal;font-weight:normal;font-size:40px;line-height:1.25;font-family:sans-serif;letter-spacing:0px;word-spacing:0px;fill:#000000;fill-opacity:1;stroke:none"
   x="113.61935"
   y="127.63226"
   id="text2312"><tspan
     sodipodi:role="line"
     id="tspan2310"
     x="113.61935"
     y="127.63226"
     style="font-style:normal;font-variant:normal;font-weight:normal;font-stretch:normal;font-size:32px;font-family:sans-serif;-inkscape-font-specification:'sans-serif, Normal';font-variant-ligatures:normal;font-variant-caps:normal;font-variant-numeric:normal;font-feature-settings:normal;text-align:start;writing-mode:lr-tb;text-anchor:start">Fox and Geese</tspan></text>



<text
   transform="scale(0.95979164,1.0418928)"
   id="text7478"
   style="font-style:normal;font-variant:normal;font-weight:normal;font-stretch:normal;font-size:11.51746623px;font-family:sans-serif;-inkscape-font-specification:'sans-serif, Normal';font-variant-ligatures:normal;font-variant-caps:normal;font-variant-numeric:normal;font-feature-settings:normal;text-align:start;writing-mode:lr;text-anchor:start;stroke-width:0.95979166;"
   x="120.16513"
   y="140.92488"><tspan
     sodipodi:role="line"
     id="tspan7476">a 10-minute board game for two players</tspan></text>
<text
   transform="scale(0.95979164,1.0418928)"
   id="text7486"
   style="font-style:normal;font-variant:normal;font-weight:normal;font-stretch:normal;font-size:11.51746655px;font-family:sans-serif;-inkscape-font-specification:'sans-serif, Normal';font-variant-ligatures:normal;font-variant-caps:normal;font-variant-numeric:normal;font-feature-settings:normal;text-align:start;writing-mode:lr-tb;text-anchor:start;stroke-width:0.95979166"
   x="120.16513"
   y="169.73135"><tspan
     sodipodi:role="line"
     id="tspan7484"
     x="120.16513"
     y="169.73135">You will need 14 goose markers, and one more,</tspan></text>
<text
   transform="scale(0.95979164,1.0418928)"
   id="text7490"
   style="font-style:normal;font-variant:normal;font-weight:normal;font-stretch:normal;font-size:11.51746655px;font-family:sans-serif;-inkscape-font-specification:'sans-serif, Normal';font-variant-ligatures:normal;font-variant-caps:normal;font-variant-numeric:normal;font-feature-settings:normal;text-align:start;writing-mode:lr-tb;text-anchor:start;stroke-width:0.95979166"
   x="120.16513"
   y="183.95869"><tspan
     sodipodi:role="line"
     id="tspan7488"
     x="120.16513"
     y="183.95869">for the fox, that is different from the others.</tspan></text>
<text
   transform="scale(0.95979164,1.0418928)"
   id="text7494"
   style="font-style:normal;font-variant:normal;font-weight:normal;font-stretch:normal;font-size:11.51746655px;font-family:sans-serif;-inkscape-font-specification:'sans-serif, Normal';font-variant-ligatures:normal;font-variant-caps:normal;font-variant-numeric:normal;font-feature-settings:normal;text-align:start;writing-mode:lr-tb;text-anchor:start;stroke-width:0.95979166"
   x="120.16135"
   y="198.57848"><tspan
     sodipodi:role="line"
     id="tspan7492"
     x="120.16135"
     y="198.57848">THE STORY: </tspan></text>
<text
   transform="scale(0.95979164,1.0418928)"
   id="text7498"
   style="font-style:normal;font-variant:normal;font-weight:normal;font-stretch:normal;font-size:11.51746655px;font-family:sans-serif;-inkscape-font-specification:'sans-serif, Normal';font-variant-ligatures:normal;font-variant-caps:normal;font-variant-numeric:normal;font-feature-settings:normal;text-align:start;writing-mode:lr-tb;text-anchor:start;stroke-width:0.95979166"
   x="120.12102"
   y="213.07982"><tspan
     sodipodi:role="line"
     id="tspan7496"
     x="120.12102"
     y="213.07982">The fox is chasing the geese. The geese hate </tspan></text>
<text
   transform="scale(0.95979164,1.0418928)"
   id="text7502"
   style="font-style:normal;font-variant:normal;font-weight:normal;font-stretch:normal;font-size:11.51746655px;font-family:sans-serif;-inkscape-font-specification:'sans-serif, Normal';font-variant-ligatures:normal;font-variant-caps:normal;font-variant-numeric:normal;font-feature-settings:normal;text-align:start;writing-mode:lr-tb;text-anchor:start;stroke-width:0.95979166"
   x="120.12102"
   y="227.26653"><tspan
     sodipodi:role="line"
     id="tspan7500"
     x="120.12102"
     y="227.26653">the fox. The fox can kill any goose, but the </tspan></text>
<text
   transform="scale(0.95979164,1.0418928)"
   id="text7506"
   style="font-style:normal;font-variant:normal;font-weight:normal;font-stretch:normal;font-size:11.51746655px;font-family:sans-serif;-inkscape-font-specification:'sans-serif, Normal';font-variant-ligatures:normal;font-variant-caps:normal;font-variant-numeric:normal;font-feature-settings:normal;text-align:start;writing-mode:lr-tb;text-anchor:start;stroke-width:0.95979166"
   x="120.12102"
   y="241.56816"><tspan
     sodipodi:role="line"
     id="tspan7504"
     x="120.12102"
     y="241.56816">geese, working together, can kill the fox. </tspan></text>
<text
   transform="scale(0.95979164,1.0418928)"
   id="text7510"
   style="font-style:normal;font-variant:normal;font-weight:normal;font-stretch:normal;font-size:11.51746655px;font-family:sans-serif;-inkscape-font-specification:'sans-serif, Normal';font-variant-ligatures:normal;font-variant-caps:normal;font-variant-numeric:normal;font-feature-settings:normal;text-align:start;writing-mode:lr-tb;text-anchor:start;stroke-width:0.95979166"
   x="120.04036"
   y="256.19141"><tspan
     sodipodi:role="line"
     id="tspan7508"
     x="120.04036"
     y="256.19141">HOW TO PLAY:  </tspan></text>
<text
   transform="scale(0.95979164,1.0418928)"
   id="text7514"
   style="font-style:normal;font-variant:normal;font-weight:normal;font-stretch:normal;font-size:11.51746655px;font-family:sans-serif;-inkscape-font-specification:'sans-serif, Normal';font-variant-ligatures:normal;font-variant-caps:normal;font-variant-numeric:normal;font-feature-settings:normal;text-align:start;writing-mode:lr-tb;text-anchor:start;stroke-width:0.95979166"
   x="120.12102"
   y="270.45941"><tspan
     sodipodi:role="line"
     id="tspan7512"
     x="120.12102"
     y="270.45941">The geese start on the black spots, and the </tspan></text>
<text
   transform="scale(0.95979164,1.0418928)"
   id="text7518"
   style="font-style:normal;font-variant:normal;font-weight:normal;font-stretch:normal;font-size:11.51746655px;font-family:sans-serif;-inkscape-font-specification:'sans-serif, Normal';font-variant-ligatures:normal;font-variant-caps:normal;font-variant-numeric:normal;font-feature-settings:normal;text-align:start;writing-mode:lr-tb;text-anchor:start;stroke-width:0.95979166"
   x="120.20924"
   y="284.91663"><tspan
     sodipodi:role="line"
     id="tspan7516"
     x="120.20924"
     y="284.91663">fox starts on the gray one. The spot colors </tspan></text>
<text
   transform="scale(0.95979164,1.0418928)"
   id="text7522"
   style="font-style:normal;font-variant:normal;font-weight:normal;font-stretch:normal;font-size:11.51746655px;font-family:sans-serif;-inkscape-font-specification:'sans-serif, Normal';font-variant-ligatures:normal;font-variant-caps:normal;font-variant-numeric:normal;font-feature-settings:normal;text-align:start;writing-mode:lr-tb;text-anchor:start;stroke-width:0.95979166"
   x="120.16514"
   y="299.34018"><tspan
     sodipodi:role="line"
     id="tspan7520"
     x="120.16514"
     y="299.34018">don't affect play; they just help set up. </tspan></text>
<text
   transform="scale(0.95979164,1.0418928)"
   id="text7526"
   style="font-style:normal;font-variant:normal;font-weight:normal;font-stretch:normal;font-size:11.51746655px;font-family:sans-serif;-inkscape-font-specification:'sans-serif, Normal';font-variant-ligatures:normal;font-variant-caps:normal;font-variant-numeric:normal;font-feature-settings:normal;text-align:start;writing-mode:lr-tb;text-anchor:start;stroke-width:0.95979166"
   x="120.16513"
   y="313.72311"><tspan
     sodipodi:role="line"
     id="tspan7524"
     x="120.16513"
     y="313.72311">Players take turns moving one marker along </tspan></text>
<text
   transform="scale(0.95979164,1.0418928)"
   id="text7530"
   style="font-style:normal;font-variant:normal;font-weight:normal;font-stretch:normal;font-size:11.51746655px;font-family:sans-serif;-inkscape-font-specification:'sans-serif, Normal';font-variant-ligatures:normal;font-variant-caps:normal;font-variant-numeric:normal;font-feature-settings:normal;text-align:start;writing-mode:lr-tb;text-anchor:start;stroke-width:0.95979166"
   x="120.21304"
   y="327.94696"><tspan
     sodipodi:role="line"
     id="tspan7528"
     x="120.21304"
     y="327.94696">one line to an adjacent spot. </tspan></text>
<text
   transform="scale(0.95979164,1.0418928)"
   id="text7534"
   style="font-style:normal;font-variant:normal;font-weight:normal;font-stretch:normal;font-size:11.51746655px;font-family:sans-serif;-inkscape-font-specification:'sans-serif, Normal';font-variant-ligatures:normal;font-variant-caps:normal;font-variant-numeric:normal;font-feature-settings:normal;text-align:start;writing-mode:lr-tb;text-anchor:start;stroke-width:0.95979166"
   x="120.24957"
   y="342.48892"><tspan
     sodipodi:role="line"
     id="tspan7532"
     x="120.24957"
     y="342.48892">The fox “eats” a goose by jumping over it </tspan></text>
<text
   transform="scale(0.95979164,1.0418928)"
   id="text7538"
   style="font-style:normal;font-variant:normal;font-weight:normal;font-stretch:normal;font-size:11.51746655px;font-family:sans-serif;-inkscape-font-specification:'sans-serif, Normal';font-variant-ligatures:normal;font-variant-caps:normal;font-variant-numeric:normal;font-feature-settings:normal;text-align:start;writing-mode:lr-tb;text-anchor:start;stroke-width:0.95979166"
   x="120.24957"
   y="356.94965"><tspan
     sodipodi:role="line"
     id="tspan7536"
     x="120.24957"
     y="356.94965">into an empty space-- like in Checkers. After </tspan></text>
<text
   transform="scale(0.95979164,1.0418928)"
   id="text7542"
   style="font-style:normal;font-variant:normal;font-weight:normal;font-stretch:normal;font-size:11.51746655px;font-family:sans-serif;-inkscape-font-specification:'sans-serif, Normal';font-variant-ligatures:normal;font-variant-caps:normal;font-variant-numeric:normal;font-feature-settings:normal;text-align:start;writing-mode:lr-tb;text-anchor:start;stroke-width:0.95979166"
   x="120.25336"
   y="371.41733"><tspan
     sodipodi:role="line"
     id="tspan7540"
     x="120.25336"
     y="371.41733">the jump, that goose is removed from the board. </tspan></text>
<text
   transform="scale(0.95979164,1.0418928)"
   id="text7546"
   style="font-style:normal;font-variant:normal;font-weight:normal;font-stretch:normal;font-size:11.51746655px;font-family:sans-serif;-inkscape-font-specification:'sans-serif, Normal';font-variant-ligatures:normal;font-variant-caps:normal;font-variant-numeric:normal;font-feature-settings:normal;text-align:start;writing-mode:lr-tb;text-anchor:start;stroke-width:0.95979166"
   x="120.16513"
   y="385.76309"><tspan
     sodipodi:role="line"
     id="tspan7544"
     x="120.16513"
     y="385.76309">More than one goose may be eaten per turn. </tspan></text>
<text
   transform="scale(0.95979164,1.0418928)"
   id="text7550"
   style="font-style:normal;font-variant:normal;font-weight:normal;font-stretch:normal;font-size:11.51746655px;font-family:sans-serif;-inkscape-font-specification:'sans-serif, Normal';font-variant-ligatures:normal;font-variant-caps:normal;font-variant-numeric:normal;font-feature-settings:normal;text-align:start;writing-mode:lr-tb;text-anchor:start;stroke-width:0.95979166"
   x="120.07691"
   y="400.02762"><tspan
     sodipodi:role="line"
     id="tspan7548"
     x="120.07691"
     y="400.02762">If the fox can kill a goose, it must!</tspan></text>
<text
   transform="scale(0.95979164,1.0418928)"
   id="text7554"
   style="font-style:normal;font-variant:normal;font-weight:normal;font-stretch:normal;font-size:11.51746655px;font-family:sans-serif;-inkscape-font-specification:'sans-serif, Normal';font-variant-ligatures:normal;font-variant-caps:normal;font-variant-numeric:normal;font-feature-settings:normal;text-align:start;writing-mode:lr-tb;text-anchor:start;stroke-width:0.95979166"
   x="120.20924"
   y="414.53241"><tspan
     sodipodi:role="line"
     id="tspan7552"
     x="120.20924"
     y="414.53241">It is a mean old fox. </tspan></text>
<text
   transform="scale(0.95979164,1.0418928)"
   id="text7558"
   style="font-style:normal;font-variant:normal;font-weight:normal;font-stretch:normal;font-size:11.51746655px;font-family:sans-serif;-inkscape-font-specification:'sans-serif, Normal';font-variant-ligatures:normal;font-variant-caps:normal;font-variant-numeric:normal;font-feature-settings:normal;text-align:start;writing-mode:lr-tb;text-anchor:start;stroke-width:0.95979166"
   x="119.99625"
   y="428.67154"><tspan
     sodipodi:role="line"
     id="tspan7556"
     x="119.99625"
     y="428.67154">WINNING: </tspan></text>
<text
   transform="scale(0.95979164,1.0418928)"
   id="text7562"
   style="font-style:normal;font-variant:normal;font-weight:normal;font-stretch:normal;font-size:11.51746655px;font-family:sans-serif;-inkscape-font-specification:'sans-serif, Normal';font-variant-ligatures:normal;font-variant-caps:normal;font-variant-numeric:normal;font-feature-settings:normal;text-align:start;writing-mode:lr-tb;text-anchor:start;stroke-width:0.95979166"
   x="120.03278"
   y="442.97665"><tspan
     sodipodi:role="line"
     id="tspan7560"
     x="120.03278"
     y="442.97665">The fox player wins by eating 6 geese. </tspan></text>
<text
   transform="scale(0.95979164,1.0418928)"
   id="text7566"
   style="font-style:normal;font-variant:normal;font-weight:normal;font-stretch:normal;font-size:11.51746655px;font-family:sans-serif;-inkscape-font-specification:'sans-serif, Normal';font-variant-ligatures:normal;font-variant-caps:normal;font-variant-numeric:normal;font-feature-settings:normal;text-align:start;writing-mode:lr-tb;text-anchor:start;stroke-width:0.95979166"
   x="120.19578"
   y="457.57162"><tspan
     sodipodi:role="line"
     id="tspan7564"
     x="120.19578"
     y="457.57162">The goose player wins by “trapping” the fox, </tspan></text>
<text
   transform="scale(0.95979164,1.0418928)"
   id="text7570"
   style="font-style:normal;font-variant:normal;font-weight:normal;font-stretch:normal;font-size:11.51746655px;font-family:sans-serif;-inkscape-font-specification:'sans-serif, Normal';font-variant-ligatures:normal;font-variant-caps:normal;font-variant-numeric:normal;font-feature-settings:normal;text-align:start;writing-mode:lr-tb;text-anchor:start;stroke-width:0.95979166"
   x="119.99625"
   y="471.90503"><tspan
     sodipodi:role="line"
     id="tspan7568"
     x="119.99625"
     y="471.90503">which they do by arranging themselves </tspan></text>
<text
   transform="scale(0.95979164,1.0418928)"
   id="text7574"
   style="font-style:normal;font-variant:normal;font-weight:normal;font-stretch:normal;font-size:11.51746655px;font-family:sans-serif;-inkscape-font-specification:'sans-serif, Normal';font-variant-ligatures:normal;font-variant-caps:normal;font-variant-numeric:normal;font-feature-settings:normal;text-align:start;writing-mode:lr-tb;text-anchor:start;stroke-width:0.95979166"
   x="120.33402"
   y="486.44702"><tspan
     sodipodi:role="line"
     id="tspan7572"
     x="120.33402"
     y="486.44702">around the fox so that it cannot move. </tspan></text>
<text
   transform="scale(0.95979164,1.0418928)"
   id="text7578"
   style="font-style:normal;font-variant:normal;font-weight:normal;font-stretch:normal;font-size:11.51746655px;font-family:sans-serif;-inkscape-font-specification:'sans-serif, Normal';font-variant-ligatures:normal;font-variant-caps:normal;font-variant-numeric:normal;font-feature-settings:normal;text-align:start;writing-mode:lr-tb;text-anchor:start;stroke-width:0.95979166"
   x="120.39046"
   y="500.57349"><tspan
     sodipodi:role="line"
     id="tspan7576"
     x="120.39046"
     y="500.57349">HINTS:  </tspan></text>
<text
   transform="scale(0.95979164,1.0418928)"
   id="text7582"
   style="font-style:normal;font-variant:normal;font-weight:normal;font-stretch:normal;font-size:11.51746655px;font-family:sans-serif;-inkscape-font-specification:'sans-serif, Normal';font-variant-ligatures:normal;font-variant-caps:normal;font-variant-numeric:normal;font-feature-settings:normal;text-align:start;writing-mode:lr-tb;text-anchor:start;stroke-width:0.95979166"
   x="120.37813"
   y="515.17218"><tspan
     sodipodi:role="line"
     id="tspan7580"
     x="120.37813"
     y="515.17218">It is much harder to win as the geese; players </tspan></text>
<text
   transform="scale(0.95979164,1.0418928)"
   id="text7586"
   style="font-style:normal;font-variant:normal;font-weight:normal;font-stretch:normal;font-size:11.51746655px;font-family:sans-serif;-inkscape-font-specification:'sans-serif, Normal';font-variant-ligatures:normal;font-variant-caps:normal;font-variant-numeric:normal;font-feature-settings:normal;text-align:start;writing-mode:lr-tb;text-anchor:start;stroke-width:0.95979166"
   x="119.95213"
   y="529.47736"><tspan
     sodipodi:role="line"
     id="tspan7584"
     x="119.95213"
     y="529.47736">of equal skill should take turns playing the </tspan></text>
<text
   transform="scale(0.95979164,1.0418928)"
   id="text7590"
   style="font-style:normal;font-variant:normal;font-weight:normal;font-stretch:normal;font-size:11.51746655px;font-family:sans-serif;-inkscape-font-specification:'sans-serif, Normal';font-variant-ligatures:normal;font-variant-caps:normal;font-variant-numeric:normal;font-feature-settings:normal;text-align:start;writing-mode:lr-tb;text-anchor:start;stroke-width:0.95979166"
   x="120.16513"
   y="544.25623"><tspan
     sodipodi:role="line"
     id="tspan7588"
     x="120.16513"
     y="544.25623">fox. Geese should stay together, move in waves, </tspan></text>
<text
   transform="scale(0.95979164,1.0418928)"
   id="text7594"
   style="font-style:normal;font-variant:normal;font-weight:normal;font-stretch:normal;font-size:11.51746655px;font-family:sans-serif;-inkscape-font-specification:'sans-serif, Normal';font-variant-ligatures:normal;font-variant-caps:normal;font-variant-numeric:normal;font-feature-settings:normal;text-align:start;writing-mode:lr-tb;text-anchor:start;stroke-width:0.95979166"
   x="120.09412"
   y="558.48004"><tspan
     sodipodi:role="line"
     id="tspan7592"
     x="120.09412"
     y="558.48004">and be ready to sacrifice one of their own </tspan></text>
<text
   transform="scale(0.95979164,1.0418928)"
   id="text7598"
   style="font-style:normal;font-variant:normal;font-weight:normal;font-stretch:normal;font-size:11.51746655px;font-family:sans-serif;-inkscape-font-specification:'sans-serif, Normal';font-variant-ligatures:normal;font-variant-caps:normal;font-variant-numeric:normal;font-feature-settings:normal;text-align:start;writing-mode:lr-tb;text-anchor:start;stroke-width:0.95979166"
   x="120.02314"
   y="573.02203"><tspan
     sodipodi:role="line"
     id="tspan7596"
     x="120.02314"
     y="573.02203">to force the fox into unsafe areas.</tspan></text>
<text
   transform="scale(0.95979164,1.0418928)"
   id="text7602"
   style="font-style:normal;font-variant:normal;font-weight:normal;font-stretch:normal;font-size:11.51746655px;font-family:sans-serif;-inkscape-font-specification:'sans-serif, Normal';font-variant-ligatures:normal;font-variant-caps:normal;font-variant-numeric:normal;font-feature-settings:normal;text-align:start;writing-mode:lr-tb;text-anchor:start;stroke-width:0.95979166"
   x="120.32233"
   y="587.20667"><tspan
     sodipodi:role="line"
     id="tspan7600"
     x="120.32233"
     y="587.20667">HISTORY:  </tspan></text>
<text
   transform="scale(0.95979164,1.0418928)"
   id="text7606"
   style="font-style:normal;font-variant:normal;font-weight:normal;font-stretch:normal;font-size:11.51746655px;font-family:sans-serif;-inkscape-font-specification:'sans-serif, Normal';font-variant-ligatures:normal;font-variant-caps:normal;font-variant-numeric:normal;font-feature-settings:normal;text-align:start;writing-mode:lr-tb;text-anchor:start;stroke-width:0.95979166"
   x="120.23615"
   y="601.63226"><tspan
     sodipodi:role="line"
     id="tspan7604"
     x="120.23615"
     y="601.63226">This game is very old, but no one knows how old. </tspan></text>
<text
   transform="scale(0.95979164,1.0418928)"
   id="text7610"
   style="font-style:normal;font-variant:normal;font-weight:normal;font-stretch:normal;font-size:11.51746655px;font-family:sans-serif;-inkscape-font-specification:'sans-serif, Normal';font-variant-ligatures:normal;font-variant-caps:normal;font-variant-numeric:normal;font-feature-settings:normal;text-align:start;writing-mode:lr-tb;text-anchor:start;stroke-width:0.95979166"
   x="120.16514"
   y="615.89679"><tspan
     sodipodi:role="line"
     id="tspan7608"
     x="120.16514"
     y="615.89679">It is described in the Grettis Saga, which </tspan></text>
<text
   transform="scale(0.95979164,1.0418928)"
   id="text7614"
   style="font-style:normal;font-variant:normal;font-weight:normal;font-stretch:normal;font-size:11.51746655px;font-family:sans-serif;-inkscape-font-specification:'sans-serif, Normal';font-variant-ligatures:normal;font-variant-caps:normal;font-variant-numeric:normal;font-feature-settings:normal;text-align:start;writing-mode:lr-tb;text-anchor:start;stroke-width:0.95979166"
   x="119.95213"
   y="630.63501"><tspan
     sodipodi:role="line"
     id="tspan7612"
     x="119.95213"
     y="630.63501">was written in Iceland around 1300, and it is </tspan></text>
<text
   transform="scale(0.95979164,1.0418928)"
   id="text7618"
   style="font-style:normal;font-variant:normal;font-weight:normal;font-stretch:normal;font-size:11.51746655px;font-family:sans-serif;-inkscape-font-specification:'sans-serif, Normal';font-variant-ligatures:normal;font-variant-caps:normal;font-variant-numeric:normal;font-feature-settings:normal;text-align:start;writing-mode:lr-tb;text-anchor:start;stroke-width:0.95979166"
   x="120.16513"
   y="644.70325"><tspan
     sodipodi:role="line"
     id="tspan7616"
     x="120.16513"
     y="644.70325">a relative of the Celtic and Norse family of </tspan></text>
<text
   transform="scale(0.95979164,1.0418928)"
   id="text7622"
   style="font-style:normal;font-variant:normal;font-weight:normal;font-stretch:normal;font-size:11.51746655px;font-family:sans-serif;-inkscape-font-specification:'sans-serif, Normal';font-variant-ligatures:normal;font-variant-caps:normal;font-variant-numeric:normal;font-feature-settings:normal;text-align:start;writing-mode:lr-tb;text-anchor:start;stroke-width:0.95979166"
   x="120.28026"
   y="659.31067"><tspan
     sodipodi:role="line"
     id="tspan7620"
     x="120.28026"
     y="659.31067">Tafl games, which go back to the stone age. </tspan></text>
</svg>