<?xml version="1.0" encoding="utf-8"?>
<!-- Generator: Adobe Illustrator 24.0.1, SVG Export Plug-In . SVG Version: 6.00 Build 0)  -->
<svg version="1.1" id="Layer_1" xmlns="http://www.w3.org/2000/svg" xmlns:xlink="http://www.w3.org/1999/xlink" x="0px" y="0px"
	 viewBox="0 0 1224 792" style="enable-background:new 0 0 1224 792;" xml:space="preserve">
<style type="text/css">
	.Arched_x0020_Green{fill:url(#SVGID_1_);stroke:#FFFFFF;stroke-width:0.25;stroke-miterlimit:1;}
	.st0{fill:#007C91;}
	.st1{fill:none;}
	.st2{fill:#231F20;}
	.st3{font-family:'LHFCosmicCursiveII';}
	.st4{font-size:33px;}
	.st5{font-family:'LHFEgyptian';}
	.st6{font-size:18px;}
	.st7{font-size:14px;}
	.st8{fill:none;stroke:#000000;}
	.st9{font-family:'MyriadPro-Regular';}
	.st10{font-size:12px;}
	.st11{fill:none;stroke:#231F20;stroke-width:4;}
	.st12{fill:none;stroke:#231F20;stroke-width:2;}
	.st13{font-size:24px;}
</style>
<linearGradient id="SVGID_1_" gradientUnits="userSpaceOnUse" x1="0" y1="792" x2="0.7071" y2="791.2929">
	<stop  offset="0" style="stop-color:#1EAB4B"/>
	<stop  offset="0.9831" style="stop-color:#19361A"/>
</linearGradient>
<g>
	<g>
		<g>
			<rect x="59.19" y="601.23" class="st0" width="16.91" height="81.8"/>
		</g>
		<g>
			<rect x="59.19" y="519.43" class="st0" width="16.91" height="81.8"/>
		</g>
		<g>
			<rect x="59.19" y="437.63" class="st0" width="16.91" height="81.8"/>
		</g>
		<g>
			<rect x="59.19" y="355.83" class="st0" width="16.91" height="81.8"/>
		</g>
		<g>
			<rect x="59.19" y="274.03" class="st0" width="16.91" height="81.8"/>
		</g>
		<g>
			<rect x="59.19" y="192.23" class="st0" width="16.91" height="81.8"/>
		</g>
		<g>
			<rect x="59.19" y="110.43" class="st0" width="16.91" height="81.8"/>
		</g>
		<g>
			<rect x="110.43" y="59.19" class="st0" width="78.07" height="16.91"/>
		</g>
		<g>
			<rect x="188.51" y="59.19" class="st0" width="78.07" height="16.91"/>
		</g>
		<g>
			<rect x="266.58" y="59.19" class="st0" width="78.07" height="16.91"/>
		</g>
		<g>
			<rect x="344.65" y="59.19" class="st0" width="78.07" height="16.91"/>
		</g>
		<g>
			<rect x="422.72" y="59.19" class="st0" width="78.07" height="16.91"/>
		</g>
		<g>
			<rect x="500.8" y="59.19" class="st0" width="78.07" height="16.91"/>
		</g>
		<g>
			<rect x="578.87" y="59.19" class="st0" width="78.07" height="16.91"/>
		</g>
		<g>
			<rect x="656.94" y="59.19" class="st0" width="78.07" height="16.91"/>
		</g>
		<g>
			<rect x="735.02" y="59.19" class="st0" width="78.07" height="16.91"/>
		</g>
		<g>
			<rect x="813.09" y="59.19" class="st0" width="78.07" height="16.91"/>
		</g>
		<g>
			<rect x="891.16" y="59.19" class="st0" width="78.07" height="16.91"/>
		</g>
		<g>
			<rect x="1003.57" y="110.43" class="st0" width="16.91" height="81.8"/>
		</g>
		<g>
			<rect x="1003.57" y="192.23" class="st0" width="16.91" height="81.8"/>
		</g>
		<g>
			<rect x="1003.57" y="274.03" class="st0" width="16.91" height="81.8"/>
		</g>
		<g>
			<rect x="1003.57" y="355.83" class="st0" width="16.91" height="81.8"/>
		</g>
		<g>
			<rect x="1003.57" y="437.63" class="st0" width="16.91" height="81.8"/>
		</g>
		<g>
			<rect x="1003.57" y="519.43" class="st0" width="16.91" height="81.8"/>
		</g>
		<g>
			<rect x="1003.57" y="601.23" class="st0" width="16.91" height="81.8"/>
		</g>
		<g>
			<rect x="891.16" y="717.37" class="st0" width="78.07" height="16.91"/>
		</g>
		<g>
			<rect x="813.09" y="717.37" class="st0" width="78.07" height="16.91"/>
		</g>
		<g>
			<rect x="735.02" y="717.37" class="st0" width="78.07" height="16.91"/>
		</g>
		<g>
			<rect x="656.94" y="717.37" class="st0" width="78.07" height="16.91"/>
		</g>
		<g>
			<rect x="578.87" y="717.37" class="st0" width="78.07" height="16.91"/>
		</g>
		<g>
			<rect x="500.8" y="717.37" class="st0" width="78.07" height="16.91"/>
		</g>
		<g>
			<rect x="422.72" y="717.37" class="st0" width="78.07" height="16.91"/>
		</g>
		<g>
			<rect x="344.65" y="717.37" class="st0" width="78.07" height="16.91"/>
		</g>
		<g>
			<rect x="266.58" y="717.37" class="st0" width="78.07" height="16.91"/>
		</g>
		<g>
			<rect x="188.51" y="717.37" class="st0" width="78.07" height="16.91"/>
		</g>
		<g>
			<rect x="110.43" y="717.37" class="st0" width="78.07" height="16.91"/>
		</g>
		<g>
			<path class="st0" d="M110.47,59.17H84.95c0.67,1.97,1.04,4.14,1.04,6.39c0,11.27-9.14,20.4-20.4,20.4c-2.24,0-4.4-0.36-6.41-1.03
				v25.54H76.1V98.96c13.63-2.6,20.27-9.23,22.88-22.86h11.49V59.17z"/>
		</g>
		<g>
			<path class="st0" d="M1020.5,110.47V84.95c-1.97,0.67-4.14,1.04-6.39,1.04c-11.27,0-20.4-9.14-20.4-20.4
				c0-2.24,0.36-4.4,1.03-6.41h-25.54V76.1h11.52c2.6,13.63,9.23,20.27,22.86,22.88v11.49H1020.5z"/>
		</g>
		<g>
			<path class="st0" d="M969.19,734.3h25.52c-0.67-1.97-1.04-4.14-1.04-6.39c0-11.27,9.14-20.4,20.4-20.4c2.24,0,4.4,0.36,6.41,1.03
				v-25.54h-16.93v11.52c-13.63,2.6-20.27,9.23-22.88,22.86h-11.49V734.3z"/>
		</g>
		<g>
			<path class="st0" d="M59.17,682.99v25.52c1.97-0.67,4.14-1.04,6.39-1.04c11.27,0,20.4,9.14,20.4,20.4c0,2.24-0.36,4.4-1.03,6.41
				h25.54v-16.93H98.96c-2.6-13.63-9.23-20.27-22.86-22.88v-11.49H59.17z"/>
		</g>
	</g>
</g>
<rect x="108" y="306" class="st1" width="252" height="184.57"/>
<text transform="matrix(0.9212 0 0 1 108 329.4297)"><tspan x="0" y="0" class="st2 st3 st4">Tabula </tspan><tspan x="0" y="13" class="st2 st5 st6">a 20-minute board game for two </tspan><tspan x="0" y="26" class="st2 st5 st6">players</tspan><tspan x="0" y="46" class="st2 st5 st7">EQUIPMENT: </tspan><tspan x="0" y="59" class="st2 st5 st7">You will need two sets of 15 markers, and 3 </tspan><tspan x="0" y="72" class="st2 st5 st7">6-sided dice. </tspan><tspan x="0" y="92" class="st2 st5 st7">IHOW TO PLAY: </tspan><tspan x="0" y="105" class="st2 st5 st7">“Tabula” is the mother of Backgammon, so if </tspan><tspan x="0" y="118" class="st2 st5 st7">you’ve played Backgammon, you’ll catch on </tspan><tspan x="0" y="131" class="st2 st5 st7">quickly. </tspan><tspan x="0" y="151" class="st2 st5 st7">Each player puts all 15 markers on the nearest </tspan></text>
<line class="st1" x1="0" y1="755.6" x2="35.71" y2="755.6"/>
<line class="st8" x1="35.71" y1="755.6" x2="35.71" y2="792"/>
<line class="st8" x1="0" y1="35.67" x2="35.71" y2="35.67"/>
<line class="st8" x1="35.71" y1="35.67" x2="35.71" y2="0"/>
<line class="st8" x1="1043.67" y1="0" x2="1043.67" y2="35.67"/>
<line class="st8" x1="1043.67" y1="35.67" x2="1084.33" y2="35.67"/>
<text transform="matrix(1 0 0 1 1060.333 53.667)"><tspan x="0" y="0" class="st9 st10">This image is intended </tspan><tspan x="0" y="14.4" class="st9 st10">to be printed on “ledger”</tspan><tspan x="0" y="28.8" class="st9 st10">sized paper: 11x17 inches. </tspan><tspan x="0" y="57.6" class="st9 st10">Corners indicate 10”x14”</tspan><tspan x="0" y="72" class="st9 st10">standard placemat size</tspan></text>
<line class="st1" x1="0" y1="755.6" x2="35.71" y2="755.6"/>
<line class="st8" x1="35.71" y1="755.6" x2="35.71" y2="792"/>
<line class="st8" x1="1043.67" y1="755.6" x2="1043.67" y2="792"/>
<line class="st8" x1="1043.67" y1="755.6" x2="1153.67" y2="755.6"/>
<line class="st8" x1="35.71" y1="755.6" x2="0" y2="755.6"/>
<rect x="414" y="307" class="st1" width="252" height="179"/>
<text transform="matrix(0.9212 0 0 1 414 316.9399)"><tspan x="0" y="0" class="st2 st5 st7">square marked “Start”, and moves counter</tspan><tspan x="251.43" y="0" class="st2 st5 st7">-</tspan><tspan x="0" y="13" class="st2 st5 st7">clockwise. </tspan><tspan x="0" y="33" class="st2 st5 st7">Players take turns throwing the 3 dice; the 3 </tspan><tspan x="0" y="46" class="st2 st5 st7">numbers determine the moves of between 1 </tspan><tspan x="0" y="59" class="st2 st5 st7">and 3 markers. </tspan><tspan x="0" y="79" class="st2 st5 st7">Markers must move the exact number of </tspan><tspan x="0" y="92" class="st2 st5 st7">spaces given by the dice. </tspan><tspan x="0" y="112" class="st2 st5 st7">The first player to move all of his or her pieces </tspan><tspan x="0" y="125" class="st2 st5 st7">off the board is the winner. Exact rolls are not </tspan><tspan x="0" y="138" class="st2 st5 st7">needed to move off the board. </tspan><tspan x="0" y="158" class="st2 st5 st7">If a marker lands on a space with only one </tspan></text>
<rect x="108" y="108" class="st11" width="864" height="180"/>
<line class="st12" x1="180" y1="108" x2="180" y2="288"/>
<line class="st12" x1="252" y1="108" x2="252" y2="288"/>
<line class="st12" x1="324" y1="108" x2="324" y2="288"/>
<line class="st12" x1="396" y1="108" x2="396" y2="288"/>
<line class="st12" x1="468" y1="108" x2="468" y2="288"/>
<line class="st11" x1="540" y1="108" x2="540" y2="288"/>
<line class="st12" x1="612" y1="108" x2="612" y2="288"/>
<line class="st12" x1="684" y1="108" x2="684" y2="288"/>
<line class="st12" x1="756" y1="108" x2="756" y2="288"/>
<line class="st12" x1="828" y1="108" x2="828" y2="288"/>
<line class="st12" x1="900" y1="108" x2="900" y2="288"/>
<rect x="109" y="505" class="st11" width="864" height="180"/>
<line class="st12" x1="181" y1="505" x2="181" y2="685"/>
<line class="st12" x1="253" y1="505" x2="253" y2="685"/>
<line class="st12" x1="325" y1="505" x2="325" y2="685"/>
<line class="st12" x1="397" y1="505" x2="397" y2="685"/>
<line class="st12" x1="469" y1="505" x2="469" y2="685"/>
<line class="st11" x1="541" y1="505" x2="541" y2="685"/>
<line class="st12" x1="613" y1="505" x2="613" y2="685"/>
<line class="st12" x1="685" y1="505" x2="685" y2="685"/>
<line class="st12" x1="757" y1="505" x2="757" y2="685"/>
<line class="st12" x1="829" y1="505" x2="829" y2="685"/>
<line class="st12" x1="901" y1="505" x2="901" y2="685"/>
<text transform="matrix(1 0 0 1 120.4326 666)" class="st5 st13">Start</text>
<rect x="720" y="306" class="st1" width="252" height="198"/>
<text transform="matrix(0.9212 0 0 1 720 315.9395)"><tspan x="0" y="0" class="st2 st5 st7">enemy marker, the enemy marker is taken off </tspan><tspan x="0" y="13" class="st2 st5 st7">the board, and must re-enter at its “Start” </tspan><tspan x="0" y="26" class="st2 st5 st7">space.</tspan><tspan x="0" y="46" class="st2 st5 st7">A marker may not be moved to a space con</tspan><tspan x="257.47" y="46" class="st2 st5 st7">-</tspan><tspan x="0" y="59" class="st2 st5 st7">taining two or more of the other player’s </tspan><tspan x="0" y="72" class="st2 st5 st7">markers.  </tspan><tspan x="0" y="92" class="st2 st5 st7">No marker may enter the second half of the </tspan><tspan x="0" y="105" class="st2 st5 st7">board until all markers have entered the </tspan><tspan x="0" y="118" class="st2 st5 st7">board. No marker may exit the board until all </tspan><tspan x="0" y="131" class="st2 st5 st7">pieces have entered the last quarter.</tspan><tspan x="0" y="151" class="st2 st5 st7">Players may lose moves if many spaces are </tspan><tspan x="0" y="164" class="st2 st5 st7">blocked, but if it is possible to use a die’s </tspan><tspan x="0" y="177" class="st2 st5 st7">move, it must be used.  </tspan></text>
<text transform="matrix(-1 0 0 -1 167.5674 126)" class="st5 st13">Start</text>
</svg>
